<svg id="Layer_1" data-name="Layer 1" xmlns="http://www.w3.org/2000/svg" viewBox="0 0 312.83 312.83"><defs><style>.cls-1{fill:purple;}.cls-1,.cls-3{stroke:purple;}.cls-1,.cls-2,.cls-3{stroke-miterlimit:10;}.cls-2,.cls-3,.cls-4{fill:#e63246;}.cls-2{stroke:#e63246;}.cls-4{font-size:66.64px;font-family:ArialMT, Arial;}</style></defs><title>brumGoLogoBlue</title><rect class="cls-1" x="0.5" y="0.5" width="311.83" height="311.83" rx="15"/><ellipse class="cls-2" cx="256.32" cy="63.1" rx="35.02" ry="32.83"/><rect class="cls-2" x="218.13" y="30.28" width="38.2" height="123.4"/><ellipse class="cls-2" cx="259.99" cy="120.85" rx="35.02" ry="32.83"/><path class="cls-3" d="M19.45,223.93h6.89a0,0,0,0,1,0,0v52a0,0,0,0,1,0,0H19.45a7.3,7.3,0,0,1-7.3-7.3V231.23A7.3,7.3,0,0,1,19.45,223.93Z"/><ellipse class="cls-2" cx="36.86" cy="263.79" rx="10.13" ry="11.08"/><ellipse class="cls-2" cx="220.56" cy="298.12" rx="10.12" ry="11.09" transform="translate(-252.63 4.22) rotate(-14.82)"/><rect class="cls-3" x="26.33" y="223.93" width="10.53" height="52.04"/><path class="cls-3" d="M64.48,223.93h0a0,0,0,0,1,0,0v51.44a0,0,0,0,1,0,0H54a0,0,0,0,1,0,0V234.46a10.53,10.53,0,0,1,10.53-10.53Z"/><ellipse class="cls-2" cx="75.22" cy="236.47" rx="10.13" ry="11.58"/><polyline class="cls-3" points="87.48 274.87 64.87 274.87 64.87 248.14"/><rect class="cls-3" x="64.87" y="223.84" width="10.35" height="25.25"/><ellipse class="cls-3" cx="115.39" cy="257.61" rx="23.63" ry="19.2"/><polyline class="cls-3" points="108.16 259.52 91.74 259.52 91.74 226.79 108.16 226.79 108.16 259.52"/><rect class="cls-3" x="122.61" y="226.56" width="16.43" height="33.2"/><polyline class="cls-3" points="147.97 226.89 159.16 238.48 147.97 248.43"/><polyline class="cls-3" points="147.97 251.06 159.16 262.65 147.97 272.6"/><polyline class="cls-3" points="159.06 261.27 147.94 249.62 159.19 239.73"/><polyline class="cls-3" points="171.85 227.14 160.03 238.13 149.42 227.62"/><polyline class="cls-3" points="172.16 250.01 160.63 238.74 171.52 228.48"/><polyline class="cls-3" points="197.35 227.77 185.07 238.28 174.93 227.35"/><polyline class="cls-3" points="173.72 228.07 184.81 239.75 173.54 249.62"/><polyline class="cls-3" points="197.36 250.76 186.16 239.19 197.32 229.21"/><polyline class="cls-3" points="197.91 273.74 186.8 262.09 198.04 252.2"/><polyline class="cls-3" points="186.11 239.73 197.41 251.21 186.32 261.27"/><text class="cls-4" transform="matrix(1.02, 0.01, -0.01, 1, 200.38, 274.84)">GO</text></svg>