<svg width="512" height="512" xmlns="http://www.w3.org/2000/svg">

 <g>
  <title>background</title>
  <rect fill="none" id="canvas_background" height="402" width="582" y="-1" x="-1"/>
 </g>
 <g>
  <title>Layer 1</title>
  <path id="svg_1" fill="#331832" d="m64,0l384,0c35.34766,0 64,28.65234 64,64l0,384c0,35.34766 -28.65234,64 -64,64l-384,0c-35.34766,0 -64,-28.65234 -64,-64l0,-384c0,-35.34766 28.65234,-64 64,-64zm0,0"/>
  <path id="svg_2" fill="#fff" d="m400,160l0,-32l-74.30469,0l-69.69531,153.32813l-69.69531,-153.32813l-74.30469,0l0,32l32,0l0,192l-32,0l0,32l64,0l0,-201.34375l80,176.01563l80,-176.01563l0,201.34375l64,0l0,-32l-32,0l0,-192l32,0zm0,0"/>
 </g>
</svg>