<svg id="Layer_1" data-name="Layer 1" xmlns="http://www.w3.org/2000/svg" viewBox="0 0 312.83 312.83"><defs><style>.cls-1{fill:red;}.cls-1,.cls-2{stroke:red;}.cls-1,.cls-2,.cls-3{stroke-miterlimit:10;}.cls-2{fill:none;}.cls-3{fill:#fff;stroke:#fcfcfc;}.cls-4{fill:#fcfcfc;}</style></defs><title>arrow</title><rect class="cls-1" x="0.5" y="0.5" width="311.83" height="311.83" rx="15"/><line class="cls-2" x1="117.3" y1="295.05" x2="299.7" y2="120.9"/><line class="cls-2" x1="3.81" y1="306.72" x2="307.25" y2="4.25"/><line class="cls-3" x1="3.67" y1="306.71" x2="307.1" y2="4.26"/><line class="cls-3" x1="3.57" y1="305.97" x2="305.55" y2="305.41"/><line class="cls-3" x1="305.55" y1="305.41" x2="307.25" y2="4.25"/><path class="cls-4" d="M357.94,236.94a109.58,109.58,0,0,1,19.52,3.57l-1.1-1.45c-.53,4.78-5.17,9.85-7.46,14s-4.34,8.31-6.26,12.59a1.5,1.5,0,0,0,2.59,1.52,261.82,261.82,0,0,0,14-24.34,1.52,1.52,0,0,0-1.69-2.2,18.25,18.25,0,0,0-15.74,17.43,1.51,1.51,0,0,0,2.79.76,41.66,41.66,0,0,0,4.21-10.92l-2.89-.8a100.5,100.5,0,0,1-5.7,19.75c-.55,1.35,1.6,2.61,2.5,1.46a25.46,25.46,0,0,0,5.24-11.55c.33-1.89-2.56-2.7-2.89-.8a22.4,22.4,0,0,1-4.47,10.22l2.51,1.46a100.4,100.4,0,0,0,5.7-19.74c.34-1.87-2.45-2.7-2.89-.8A39.19,39.19,0,0,1,362,257.3l2.8.75a15.31,15.31,0,0,1,13.54-14.54l-1.7-2.2a263,263,0,0,1-14,24.33l2.59,1.52a160,160,0,0,1,8.12-15.86c2.33-4,5.49-7.56,6-12.24a1.52,1.52,0,0,0-1.1-1.45,114.88,114.88,0,0,0-20.32-3.67c-1.92-.17-1.91,2.83,0,3Z" transform="translate(-183.7 -62.13)"/><path class="cls-4" d="M379.94,292.74l-12,11.71,8.35,4.87c2.65-7.19,9.23-13.29,14-19.15l15.68-19.35c4-4.91-2.79-12-7.07-7.07l-27.71,31.81c-4.18,4.81,2.57,11.76,7.08,7.07,15-15.66,27.67-33.32,40.22-51,3.29-4.63-4-10.22-7.86-6.06a209.79,209.79,0,0,0-26.83,36.62c-3.22,5.59,5.23,10.48,8.64,5L408.9,261l-8.63-5.05a251.62,251.62,0,0,1-21.61,31.47l7.85,6.06q13.22-22.89,28.2-44.66l-8.63-5-26.17,38,8.63,5.05,2.61-4.29c3-4.84-3.88-10.16-7.85-6.06l-24.84,25.6,8.36,4.87A225.41,225.41,0,0,1,396,245c3.64-5.41-4.92-10.18-8.63-5a309.48,309.48,0,0,1-25.9,31.13c-4.46,4.71,2.27,11.31,7.07,7.07L389.22,260l10.32-9.1c1.33-1.17,7.28-7.84,9-6.66l-1.8-6.84A260.78,260.78,0,0,0,381,286.81l9.64,2.66,19.81-54.4c1.61-4.43-3.77-7.42-7.34-5.65a41,41,0,0,0-18.17,17.85c-1.92,3.69,1.29,8.71,5.65,7.35q7.4-2.33,14.78-4.67l-5.64-7.35L374.1,287.05l9.14,3.85a161.54,161.54,0,0,0,8.12-27.24c1.17-5.7-5.82-8.45-9.14-3.85A71,71,0,0,1,367,275.31c-5.1,3.81-.12,12.49,5.05,8.64a87.11,87.11,0,0,0,18.81-19.09L381.72,261a161.54,161.54,0,0,1-8.12,27.24c-2.12,5.35,6.37,8.66,9.13,3.86l25.58-44.45c2.11-3.65-1.4-8.69-5.64-7.34q-7.4,2.34-14.79,4.66l5.65,7.35a31.93,31.93,0,0,1,14.57-14.26l-7.34-5.65L381,286.81c-2.23,6.11,7.31,8.54,9.64,2.66a248.92,248.92,0,0,1,24.82-47c1.57-2.35.33-5.4-1.8-6.84-8.79-6-18.22,5.64-24.09,10.82l-28,24.7,7.07,7.07A326.08,326.08,0,0,0,396,245l-8.63-5a234.51,234.51,0,0,0-30.23,64.29c-1.42,4.78,4.9,8.42,8.35,4.86l24.84-25.6-7.85-6.06-2.61,4.29c-3.39,5.57,5,10.29,8.63,5.05l26.17-38c3.66-5.31-5-10.32-8.63-5q-15,21.76-28.21,44.65c-2.73,4.75,4.19,10.6,7.86,6.06A266.47,266.47,0,0,0,408.9,261c3.25-5.58-5.22-10.49-8.63-5.05l-16.5,26.29,8.64,5a197,197,0,0,1,25.27-34.59l-7.86-6c-12.06,17-24.21,33.88-38.66,48.94l7.08,7.07,27.7-31.81-7.07-7.07-18.1,22.33c-5.24,6.46-11.21,12.67-14.13,20.58-1.8,4.88,5,8.14,8.36,4.87l12-11.72c4.61-4.5-2.46-11.57-7.07-7.07Z" transform="translate(-183.7 -62.13)"/><path class="cls-4" d="M400.82,317.81a24.06,24.06,0,0,1-11.06-7.37l1.54,5.84a20.58,20.58,0,0,1,3.14-6.37,18.84,18.84,0,0,1,2.1-2.37c.74-.71,2.64-1.47,1-1.4l-4.25-1.76c1,.84-.56,4.64-.95,5.41a9.42,9.42,0,0,1-2.12,2.77c-.68.6-2.81,1.19-3.19,1.75-1.63.29-.9,1.16,2.2,2.63a10.58,10.58,0,0,1,.81-1.86,28.23,28.23,0,0,1,2.44-4.1,27.47,27.47,0,0,1,3.17-3.65,22.37,22.37,0,0,1,1.75-1.62c1.62-1,1.78-1.26.49-.79l-4.24-1.76c-.65-1.32-.7-1-.13,1.07.1.86.17,1.72.19,2.59a35.89,35.89,0,0,1-.12,5.18,32.73,32.73,0,0,1-1.22,6l-.53,1.65q-2.2,3.56,4,1.51c.47-.63.63-4.37.79-5.19.34-1.75.75-3.49,1.19-5.22a109.6,109.6,0,0,1,3.57-11.06A224.24,224.24,0,0,1,410.76,279c3.19-6.4,6.22-12.72,11.89-17.29l-10-2.65c.89,3.16-.49,6.78-1.26,9.88q-1.29,5.21-2.92,10.33t-3.6,10.11c-.41,1.05-2.54,7.95-3.46,8.21l7.38,7.38,2.7-12.36c1.64-7.53-9.93-10.74-11.57-3.19l-2.7,12.36c-.95,4.38,2.79,8.66,7.38,7.38s6.66-4.51,8.48-8.55c2.17-4.82,4.12-9.75,5.83-14.75,3-8.8,7.92-20.67,5.31-30-1.31-4.7-6.61-5.4-10-2.65-8,6.45-12.18,16.34-16.55,25.38-4.77,9.86-9.28,20-11.84,30.71-1.78,7.41-4.9,22.8,7.15,23.19,10.53.35,12.63-15.38,12.81-23.1.09-4.11.07-9.86-2.39-13.35-3.12-4.41-8.14-3.54-12-.78-6.52,4.66-15.22,14.53-14.11,23.23,1.39,10.88,14.43,8.45,20.5,3.36S407,308,404.61,300.3c-4.44-14.4-19-.13-22.59,6.94-2.73,5.46-3.36,9.41,1.31,13.89a36.12,36.12,0,0,0,14.3,8.25c7.39,2.33,10.55-9.25,3.19-11.57Z" transform="translate(-183.7 -62.13)"/><path class="cls-4" d="M405.31,292.11c-2.24.42-5.29,1.24-7.47.27s-2.51-3.34-3.57-5.27c-2.58-4.72-9.44-3.29-11,1.43-1.62,5-6.61,7.77-10.74,10.52A43,43,0,0,0,361.1,309.5c-4.55,6.25,5.86,12.24,10.36,6.05,3.32-4.55,8.93-7,13.32-10.38,4.69-3.57,8.27-7.75,10.1-13.44l-11,1.44c2.48,4.54,4.12,8.21,9.27,10.27,5,2,10.19,1.2,15.32.24,7.58-1.42,4.37-13-3.19-11.57Z" transform="translate(-183.7 -62.13)"/><path class="cls-4" d="M420.94,274.47c18.59-41.1,31.6-84.33,44.93-127.34,1.23-4-2.61-6.72-6.15-6.15-10,1.62-13.79,13.82-17.64,21.63-5.28,10.75-10.49,21.54-15.33,32.5-9.71,21.93-18,44.5-22.63,68.1-1.05,5.32,6.21,9,9.14,3.85a581.25,581.25,0,0,0,28.12-57c2.49-5.85-6.12-11-8.64-5.05a576.8,576.8,0,0,1-28.12,57l9.14,3.85c4.21-21.51,11.43-42.26,20.14-62.34,4.29-9.86,8.88-19.58,13.58-29.24,2.28-4.7,4.59-9.37,6.9-14.05,1.78-3.6,3.55-8.88,8-9.61l-6.15-6.15c-13.07,42.16-25.7,84.66-43.93,125-2.63,5.82,6,10.91,8.64,5.05Z" transform="translate(-183.7 -62.13)"/><path class="cls-4" d="M438.45,207.67c6.44,0,6.45-10,0-10s-6.44,10,0,10Z" transform="translate(-183.7 -62.13)"/><path class="cls-4" d="M435.33,186.35c-10.45,19.37-21,38.9-34.92,56l8.36,4.87a201.71,201.71,0,0,1,50.73-92.69l-8.36-4.87c-7.76,20.2-26.29,34.31-37.92,52.16-12.46,19.14-20.49,40.75-28.43,62l9.82,1.33c1.4-10.83,6.89-20.53,12.15-29.9a200.39,200.39,0,0,0,13.75-29c7.28-19.8,11.95-40.79,24.71-58l-8.63-5a546.81,546.81,0,0,0-32.76,73.5c-2.22,6.16,7.24,8.46,9.64,2.66a511.94,511.94,0,0,1,36.78-71.85c3.42-5.57-5-10.24-8.63-5.05a454.16,454.16,0,0,0-37.2,63.38c-2.79,5.77,5.83,10.85,8.63,5.05a455,455,0,0,1,37.2-63.38l-8.63-5.05a526,526,0,0,0-37.79,74.24l9.64,2.66a530.22,530.22,0,0,1,31.75-71.12c3.11-5.79-4.88-10.12-8.63-5-13.25,17.9-18.16,39.86-25.72,60.42-7.71,21-23.33,39-26.26,61.53-.78,6,8,6.21,9.82,1.33,8.05-21.58,16.25-43.4,29.35-62.52,12.06-17.6,29.19-31.32,37-51.67,1.84-4.78-5.07-8.28-8.35-4.86a211.8,211.8,0,0,0-53.3,97.1c-1.08,4.47,5,9,8.35,4.86,14.51-17.84,25.6-37.89,36.48-58.07,3.06-5.66-5.57-10.72-8.63-5Z" transform="translate(-183.7 -62.13)"/><path class="cls-4" d="M326.36,250.65c9.09-4.94,11.64-14.83,18.57-21.77,4.13-4.14,9.18-6.91,12.86-11.56,3.27-4.13,5.62-8.95,9-13,6.8-8.05,18.14-9.94,25-18.28,5.72-7,9.22-16.79,17.88-20.67,5.86-2.64.78-11.26-5.05-8.64-8.55,3.84-12.9,12.17-18,19.54a31.53,31.53,0,0,1-11.43,10.33c-4.69,2.56-9.5,4.79-13.44,8.49s-6.42,8.15-9.26,12.45c-3.22,4.87-7.16,8-11.66,11.61a45.16,45.16,0,0,0-9.65,11.49c-2.76,4.36-5.24,8.81-9.91,11.35-5.66,3.07-.62,11.71,5.05,8.64Z" transform="translate(-183.7 -62.13)"/><path class="cls-4" d="M326.24,247.33a45,45,0,0,1,9-10.22c2.82-2.28,4.41-5.16,6.85-7.77,2.82-3,6.36-5.51,9.36-8.38,3.47-3.32,6.79-6.8,10-10.38,4.28-4.78-2.77-11.87-7.08-7.07-3.21,3.58-6.53,7.06-10,10.38s-7.49,6.09-10.56,9.64c-1.3,1.5-2.13,3.32-3.51,4.76s-3.26,2.5-4.74,3.89c-3.15,2.92-5.6,6.58-8,10.1-3.63,5.33,5,10.34,8.64,5.05Z" transform="translate(-183.7 -62.13)"/><path class="cls-4" d="M334.16,235.16c6.44,0,6.45-10,0-10s-6.44,10,0,10Z" transform="translate(-183.7 -62.13)"/><path class="cls-4" d="M334.16,235.16c6.44,0,6.45-10,0-10s-6.44,10,0,10Z" transform="translate(-183.7 -62.13)"/><path class="cls-4" d="M335.47,233.85c6.44,0,6.45-10,0-10s-6.44,10,0,10Z" transform="translate(-183.7 -62.13)"/><path class="cls-4" d="M330.24,237.78c6.43,0,6.44-10,0-10s-6.45,10,0,10Z" transform="translate(-183.7 -62.13)"/><path class="cls-4" d="M327.4,241.05c6.43,0,6.45-10,0-10s-6.45,10,0,10Z" transform="translate(-183.7 -62.13)"/><path class="cls-4" d="M324.13,244.76c6.43,0,6.44-10,0-10s-6.45,10,0,10Z" transform="translate(-183.7 -62.13)"/><path class="cls-4" d="M320.42,247.82c6.43,0,6.44-10,0-10s-6.45,10,0,10Z" transform="translate(-183.7 -62.13)"/><path class="cls-4" d="M317.58,251.09c6.44,0,6.45-10,0-10s-6.44,10,0,10Z" transform="translate(-183.7 -62.13)"/><path class="cls-4" d="M344.85,223.38c6.44,0,6.45-10,0-10s-6.44,10,0,10Z" transform="translate(-183.7 -62.13)"/><path class="cls-4" d="M342.89,225.56c6.44,0,6.45-10,0-10s-6.44,10,0,10Z" transform="translate(-183.7 -62.13)"/><path class="cls-4" d="M349.22,219.67c6.43,0,6.44-10,0-10s-6.45,10,0,10Z" transform="translate(-183.7 -62.13)"/><path class="cls-4" d="M351,220.83l5.28-6.34c1.22-1.47,2.86-4.3,4.42-5,2.47-1.08,3-4.71,1.79-6.84-1.49-2.56-4.35-2.88-6.84-1.8s-4.16,3.81-5.85,5.84l-5.88,7c-1.72,2.08-2,5,0,7.07,1.78,1.78,5.34,2.09,7.08,0Z" transform="translate(-183.7 -62.13)"/><path class="cls-4" d="M347,221.85c6.43,0,6.44-10,0-10s-6.45,10,0,10Z" transform="translate(-183.7 -62.13)"/><path class="cls-4" d="M367.24,197.67c3.63,1.85,6.23.94,9.4-1.34s7-3.11,9.93-5.58,4.14-5.86,7-8.21a28.15,28.15,0,0,0,3.85-3.38c1.18-1.41,1.51-3.34,2.64-4.68,4.11-4.9-2.93-12-7.07-7.07-1.75,2.08-2.46,4.63-4.45,6.47s-4,3.16-5.66,5.4c-2.2,3-3.11,4-6.58,5.57-2.28,1-4.56,3.58-6.88,4.18l3.85.5-1-.49c-5.73-2.92-10.8,5.71-5.05,8.63Z" transform="translate(-183.7 -62.13)"/><path class="cls-4" d="M376.71,196.21c8.44-6.56,15.87-14.91,22.31-23.39,3.88-5.13-4.8-10.12-8.64-5a116.6,116.6,0,0,1-20.74,21.37c-5.07,3.94,2.05,11,7.07,7.07Z" transform="translate(-183.7 -62.13)"/><path class="cls-4" d="M376.39,195.85c3.15-2.41,4.15-6,7.45-8.22a25,25,0,0,0,4.81-3.88c1.75-1.94,2.87-3.58,5.24-4.82,5.71-3,.66-11.62-5-8.64-4.16,2.18-6.28,6.16-10.06,8.7a25.83,25.83,0,0,0-4.74,3.72,14.62,14.62,0,0,0-1.86,2.5,16.87,16.87,0,0,0-.84,2c-2.16,1.66-3.25,4.28-1.8,6.84,1.21,2.12,4.71,3.44,6.84,1.79Z" transform="translate(-183.7 -62.13)"/><path class="cls-4" d="M373.65,195.24c6.44,0,6.45-10,0-10s-6.44,10,0,10Z" transform="translate(-183.7 -62.13)"/><path class="cls-4" d="M387.24,183.73c3-1.36,6.76-2.86,8.2-6,1.93-4.21-2.18-10.11-7-8.14l4.86,8.35c.38-.39.75-.79,1.12-1.2l-8.35-4.87c.74-1.77,2-2.39.67-1.45a9.05,9.05,0,0,0-1.45,1.15,10.77,10.77,0,0,0-2,3.6l1.29-2.21c.54-.55-.72.59-1,.87a7.66,7.66,0,0,0-.94,1,9,9,0,0,0-.94,1.37c-.51.94-1.59,2.51.33.7,1.64-1.54.94-.95,0-.56a9,9,0,0,0-1.42.72,6.4,6.4,0,0,0-2.69,3.76c-1.67,6.22,8,8.87,9.64,2.65l.12-.42-1.29,2.21-.66.32,1.62-.68a6.42,6.42,0,0,0,1.71-1.35,3.77,3.77,0,0,0,1-1.41,8.57,8.57,0,0,0,.64-1.61c-.17.15-.94,1.12.14.25a5.85,5.85,0,0,0,2.17-3c.52-1.11.13-.7-1.15,1.22l.5-.32a7.39,7.39,0,0,0,3.42-4.2c.84-2-.57-4.63-2.3-5.64a5,5,0,0,0-6.06.78c-.37.41-.74.81-1.12,1.2a5.11,5.11,0,0,0-.78,6.06c1,1.75,3.62,3.12,5.64,2.3l.35-.14h-2.66l.37.09-2.21-1.29-.26-.37L386,175c0-.62,2.66-3.31.8-2.23-.49.29-1,.56-1.5.83-1,.54-2,1-3.09,1.51-2.46,1.12-3.06,4.68-1.79,6.84,1.48,2.52,4.37,2.91,6.84,1.79Z" transform="translate(-183.7 -62.13)"/><path class="cls-4" d="M381.73,187c6.43,0,6.44-10,0-10s-6.45,10,0,10Z" transform="translate(-183.7 -62.13)"/><path class="cls-4" d="M395.25,174.17c5.95-1.43,7.21-6.25,11.07-9,2.25-1.62,4.95-2,7-4,2.34-2.25,3.56-5.2,4.76-8.15,2.16-5.26-6.49-8.78-9.14-3.85-1.72,3.21-5.7,3.71-7.62,7-3.26,5.57,5.38,10.6,8.64,5.05.41-.7,3.21-1.82,3.9-2.38a15,15,0,0,0,3.72-4.59l-9.14-3.85c-.71,1.74-1.44,3.3-3.11,4.24-2,1.11-3.93,1.62-5.72,3.15a31.08,31.08,0,0,0-3.84,3.37c-1.27,1.56-1.12,2.9-3.19,3.4-6.26,1.49-3.61,11.14,2.65,9.64Z" transform="translate(-183.7 -62.13)"/><path class="cls-4" d="M397.22,171.89c6.43,0,6.44-10,0-10s-6.45,10,0,10Z" transform="translate(-183.7 -62.13)"/><path class="cls-4" d="M407,163.16c6.43,0,6.44-10,0-10s-6.45,10,0,10Z" transform="translate(-183.7 -62.13)"/><path class="cls-4" d="M410.87,159.41a20.69,20.69,0,0,0,6.94-4.32c1.75-1.83,2.4-4.47,4.19-6.19s4-2.37,5.75-4a15.84,15.84,0,0,0,4.2-7.13c1.6-5.38-6.43-8.87-9.14-3.85a5.41,5.41,0,0,1-2.9,2.65c-5.82,2.74-.75,11.36,5,8.63a14.16,14.16,0,0,0,6.48-6.23l-9.14-3.86c-1.09,3.7-5.56,4.69-8,7.35-1.43,1.52-2,3.45-3.23,5.08s-3.37,2.42-5.21,3.21c-5.89,2.55-.8,11.17,5.05,8.64Z" transform="translate(-183.7 -62.13)"/><path class="cls-4" d="M413.15,155.53c6.43,0,6.44-10,0-10s-6.45,10,0,10Z" transform="translate(-183.7 -62.13)"/><path class="cls-4" d="M410.75,158.15c6.43,0,6.44-10,0-10s-6.45,10,0,10Z" transform="translate(-183.7 -62.13)"/><path class="cls-4" d="M434.07,137.49c2.3-3.24,5.48-4.17,8.54-6.31a10.55,10.55,0,0,0,3-3.17c.75-1.18.94-3.36,1.86-4.32.6-.63,2-.9,2.83-1.41a14.66,14.66,0,0,0,3.74-3.67,22.67,22.67,0,0,1,6.56-6.12,19,19,0,0,0,5.93-6.23c1.8-2.85,4.58-3.81,6.77-6.29s3-5.71,5.57-8a49.59,49.59,0,0,0,6.76-7.35c3.81-5.2-4.87-10.19-8.63-5-2.05,2.8-4.9,4.61-7.15,7.18s-3,5.74-5.71,7.84c-2.2,1.7-4,3-5.57,5.42-2.06,3.24-4.11,4.21-7.1,6.4-2.51,1.83-3.64,4.44-5.73,6.61s-5.22,2.77-6.9,5.64c-.75,1.27-.9,3-1.89,4.11s-2.73,1.5-4,2.27a26.13,26.13,0,0,0-7.54,7.42c-3.74,5.25,4.93,10.25,8.63,5Z" transform="translate(-183.7 -62.13)"/><path class="cls-4" d="M438.24,130.44c6.43,0,6.44-10,0-10s-6.45,10,0,10Z" transform="translate(-183.7 -62.13)"/><path class="cls-4" d="M437.36,131.53c6.44,0,6.45-10,0-10s-6.44,10,0,10Z" transform="translate(-183.7 -62.13)"/><path class="cls-4" d="M442,128c6.43,0,6.44-10,0-10s-6.45,10,0,10Z" transform="translate(-183.7 -62.13)"/><path class="cls-4" d="M441.51,127.38c6.43,0,6.44-10,0-10s-6.45,10,0,10Z" transform="translate(-183.7 -62.13)"/><path class="cls-4" d="M446.53,122.36c6.43,0,6.44-10,0-10s-6.45,10,0,10Z" transform="translate(-183.7 -62.13)"/><path class="cls-4" d="M450,118.87c6.43,0,6.44-10,0-10s-6.45,10,0,10Z" transform="translate(-183.7 -62.13)"/><path class="cls-4" d="M455.91,113c6.43,0,6.44-10,0-10s-6.45,10,0,10Z" transform="translate(-183.7 -62.13)"/><path class="cls-4" d="M453.29,115.82c6.44,0,6.45-10,0-10s-6.44,10,0,10Z" transform="translate(-183.7 -62.13)"/><path class="cls-4" d="M459.4,109.05c6.43,0,6.45-10,0-10s-6.45,10,0,10Z" transform="translate(-183.7 -62.13)"/><path class="cls-4" d="M464.2,104.47c6.43,0,6.45-10,0-10s-6.45,10,0,10Z" transform="translate(-183.7 -62.13)"/><path class="cls-4" d="M467.69,101c6.44,0,6.45-10,0-10s-6.44,10,0,10Z" transform="translate(-183.7 -62.13)"/><path class="cls-4" d="M462.45,107.09c6.44,0,6.45-10,0-10s-6.44,10,0,10Z" transform="translate(-183.7 -62.13)"/><path class="cls-4" d="M435.33,133.27c6.43,0,6.44-10,0-10s-6.45,10,0,10Z" transform="translate(-183.7 -62.13)"/><path class="cls-4" d="M436.49,155c6.44,0,6.45-10,0-10s-6.44,10,0,10Z" transform="translate(-183.7 -62.13)"/><path class="cls-4" d="M490.91,126.52c.16-7.08-.24-14.09-.47-21.17-.24-7.27.9-14.49,0-21.75-.77-6.31-10.78-6.38-10,0,.88,7.26-.24,14.48,0,21.75.22,7.08.63,14.09.47,21.17-.15,6.44,9.85,6.44,10,0Z" transform="translate(-183.7 -62.13)"/><path class="cls-4" d="M490.65,165.07c0-11.24-2.86-21.87-.14-33l-9.82-1.33-.85,17.4c-.19,4-.47,8.31,4.24,9.61,4,1.11,6.72-2.52,6.15-6.15-.11-.66,0-3.69-.51-1.8l-3.49,3.49.3-.06c6.32-1.16,3.64-10.8-2.66-9.64l-.3.06a4.89,4.89,0,0,0-3.49,3.49c-.6,2.32.14,4.8.51,7.12l6.15-6.15-.53-.15,3.49,3.5c-.78-2.73.34-7.25.47-10.08l.52-10.64c.28-5.63-8.49-6.79-9.82-1.33-3,12.18-.2,23.48-.22,35.71,0,6.44,10,6.45,10,0Z" transform="translate(-183.7 -62.13)"/><path class="cls-4" d="M486,152c6.43,0,6.44-10,0-10s-6.45,10,0,10Z" transform="translate(-183.7 -62.13)"/><path class="cls-4" d="M485.8,148.84c6.43,0,6.45-10,0-10s-6.45,10,0,10Z" transform="translate(-183.7 -62.13)"/><path class="cls-4" d="M489.87,211.33q-.44-21.78-.4-43.54l-9.82,1.33a5.25,5.25,0,0,1,.11,2.46c-.43,6,8,6.26,9.82,1.33a11.48,11.48,0,0,0,.67-3.72c.34-6.44-9.64-6.41-10,0a23.11,23.11,0,0,1-1.06,5.79c-1.71,5.69,6,8.33,9.13,3.85l-.17.46L480.63,175l-.17,33.29c0,6.44,10,6.45,10,0l.17-33.29c0-4.13-4.19-5.78-7.52-4.32a7.61,7.61,0,0,0-3.42,3.13l9.14,3.85a36.17,36.17,0,0,0,1.42-8.45h-10l-.32,1.06,9.83,1.33a17.32,17.32,0,0,0-.47-5.12c-1.26-5.56-9.82-4.25-9.82,1.33q0,21.77.4,43.54c.13,6.42,10.13,6.44,10,0Z" transform="translate(-183.7 -62.13)"/><path class="cls-4" d="M489.49,253.09c-1.62-13.14.94-26.29,0-39.45-.48-6.38-10.48-6.43-10,0,1,13.16-1.59,26.31,0,39.45.79,6.31,10.8,6.38,10,0Z" transform="translate(-183.7 -62.13)"/><path class="cls-4" d="M490,249.29q-.19-11.79.36-23.57c.31-6.43-9.69-6.41-10,0q-.56,11.79-.36,23.57c.11,6.43,10.11,6.45,10,0Z" transform="translate(-183.7 -62.13)"/><path class="cls-4" d="M486,217.93c6.43,0,6.44-10,0-10s-6.45,10,0,10Z" transform="translate(-183.7 -62.13)"/><path class="cls-4" d="M476.11,254.09l-.32-27.91h-10c.43,6.38,1,12.72,1.89,19.06.8,6.16,10.12,6.64,10,0l-.79-42.4h-10l4.86,40.43c.75,6.28,9.59,6.57,10,0,1.18-19.22,2-38.07.7-57.32-1.31-19-3.14-37.93-1-56.9.71-6.39-9.29-6.34-10,0-2.13,19-.3,37.94,1,56.9,1.34,19.24.48,38.1-.7,57.32h10l-4.86-40.43c-.74-6.2-10.12-6.61-10,0l.79,42.4h10c-.84-6.34-1.46-12.68-1.89-19.06s-10.07-6.5-10,0l.32,27.91c.07,6.43,10.07,6.45,10,0Z" transform="translate(-183.7 -62.13)"/><path class="cls-4" d="M481.11,137.14,481,116.43l0-9.86,0-4.93c0-.68.44-5.35-1-4.25l-3.85.5.76.27-2.21-8.36c-9.75,11.89-19.5,23.8-30,35C435,135.05,423.33,144,416,156.05c-2.42,4,2.72,10,6.84,6.85,11.13-8.5,22.18-17.11,33.42-25.44l-6.84-6.84L442,143.78c-2.81,5,3.7,9.95,7.85,6.06,11.75-11,19.79-25,27.55-38.88,3.21-5.76-4.88-10.09-8.64-5a109,109,0,0,0-16.49,32.41l9.82,1.33.22-16.06c.07-5.3-6.6-6.35-9.32-2.53a64,64,0,0,0-10.16,22.62c-1.1,4.7,4.77,8.6,8.36,4.86a325.56,325.56,0,0,0,21.4-24.64l-8.54-3.53c-4.21,33.26-8.31,66.72-5.81,100.29.15,2.06,1.43,4.39,3.67,4.82,5.16,1,8.48-2.21,9.76-7.06,1.65-6.19,1.91-13.23,2.31-19.6a184.26,184.26,0,0,0-2.17-40.9c-.79-4.92-8.63-4.62-9.65,0-5.67,25.88-.83,52.77-7,78.55l9.83,1.33,2.75-43c.38-6-8-6.3-9.82-1.33a241.67,241.67,0,0,0-11.71,44l9.82,1.33A277.45,277.45,0,0,1,463,177.11c1.43-6.26-7.8-8.85-9.64-2.66l-14.78,49.94,9.64,2.66a345.07,345.07,0,0,1,13.65-59.46l-9.65-2.66q-6.37,40.26-14.52,80.22h9.65a116.38,116.38,0,0,1,4.05-63.48c1.82-5.22-4.87-7.65-8.36-4.86a37.5,37.5,0,0,0-9.36,11.11l9.14,3.85a66.41,66.41,0,0,1,30.76-39.88l-6.84-6.84c-5,10.84-11.2,22.47-20.22,30.51-8.85,7.89-21.25,11.22-31.31,17.31-9.78,5.92-18.79,13-27.79,20-4.92,3.84-9.85,7.69-14.93,11.34-.86.62-2.61,2.32-3.55,2.5l-.38.68c-.56-.75-1.11-1.51-1.66-2.27l-5.63-7.8-1.79,6.84c26.39-17,42.76-45,68-63.29l-6.84-6.84c-13.06,27.55-37.11,47.09-60.81,65.25-3.13,2.4-3.42,8.06,1.2,9.14,8.79,2,15.69-3.55,22.58-8.2a237.05,237.05,0,0,0,19.94-14.71c12.27-10.28,22.48-22.87,27.67-38.16,1.93-5.68-6.07-8.24-9.13-3.86-7,10-14.37,20.41-25.51,26.18-5.81,3-12.17,4.76-18.21,7.21A118.71,118.71,0,0,0,361,205.79l7.34,3c-1.09-3.71,21.75-7.34,24.37-7.71l-5.65-7.34a472.22,472.22,0,0,1-26.93,45.54c-3.12,4.66,4.21,10.46,7.85,6.06,6.32-7.63,13-16,22.44-19.92l-5.65-7.35a343.29,343.29,0,0,1-24.19,40c-3.74,5.33,4.85,10.1,8.63,5l32-42.73c3.07-4.09-2.82-9.37-6.84-6.84a107.73,107.73,0,0,0-31.24,29.92c-3.23,4.64,4.08,10.29,7.85,6.06,10.44-11.73,22.92-21.17,35.5-30.46,4.31-3.19,2-10.75-3.86-9.14-30.81,8.51-55.55,33.95-63,65.06-.72,3,1.47,6.51,4.82,6.33,21.79-1.12,37.95-21.79,51-37.06a5,5,0,0,0-7.07-7.07l-19.18,16.89,7.85,6.06a190.32,190.32,0,0,1,20.85-32.65l-7.85-6.06q-8,11.07-14.95,22.84c-2.91,5,3.74,9.92,7.86,6.06a76.86,76.86,0,0,0,17.72-24.88l-9.32-2.52a13.07,13.07,0,0,1-1.78,7.66c-3,5.26,3.61,9.38,7.86,6.06a21.25,21.25,0,0,0,8.06-17.59c-.1-3.4-4.33-6.75-7.52-4.32a298.34,298.34,0,0,0-44.44,41.47c-4.19,4.81,2.44,11.65,7.07,7.07l12.07-12-7.85-6.06A413.94,413.94,0,0,0,336,295.46l8.63,5.05A308.52,308.52,0,0,1,368,257.75c2.55-3.91-1.65-8.17-5.65-7.35l-.9.18,3.86.51c1.58,1.1,1.76-2.05,2.05-2.87a34.22,34.22,0,0,1,2.11-4.61l-9.13-1.19c.29,2.13-.7,3.72-1.94,5.33l9.31,2.53q.45-9.14,1.23-18.23c.47-5.41-6.74-6.14-9.31-2.52q-15.94,22.4-30,46c-2.82,4.74,4.14,10.52,7.85,6.06l29.22-35.13c4.05-4.87-2.64-11.87-7.07-7.07a55,55,0,0,1-10.68,9l6.84,6.84,13.2-25c2.76-5.23-3.53-9.58-7.85-6.06L333.29,247c-7.94,6.47-15.83,12.78-21.57,21.38-2.76,4.15,2.71,9.52,6.84,6.85l15.07-9.76-5.05-8.64a88.08,88.08,0,0,0-10.19,8.81c-4.52,4.61,2.44,11.55,7.07,7.08a120.26,120.26,0,0,1,17.85-14.29l-6.06-7.85a257.76,257.76,0,0,0-18.44,23.59c-3.2,4.61,4.23,10.46,7.85,6.06l14.85-18.09c4-4.9-2.29-11.56-7.07-7.07L316,272.36l7.86,6.06a227,227,0,0,1,38-49.52c4.24-4.18-1.11-10.18-6.06-7.85-17.53,8.27-30.79,22.66-42.92,37.39-2.61,3.17-1.12,8.61,3.53,8.53a150.48,150.48,0,0,0,43.1-6.92,152.63,152.63,0,0,0,19.71-7.85q4.68-2.25,9.2-4.83c2.73-1.57,7.14-5.58,10.38-4.49l-3.49-6.15-8.2,31.07c-2.33,8.81-5.92,17.95-1.66,26.7,1.41,2.9,5.74,3.18,7.85,1a154,154,0,0,0,25.23-34.44h-8.64c5.4,12.12,5.75,25.62,6.12,38.67.19,6.41,10,6.45,10,0a332.45,332.45,0,0,1,3-45.58l-9.82-1.33a381.18,381.18,0,0,1-1.37,41.39c-.56,6.43,9.38,6.33,10,0a373.08,373.08,0,0,1,5.8-38.06l-9.82-1.33a66.76,66.76,0,0,1-4.24,23.57l9.64,2.66,6.45-30.77L425.84,249l.84,15.46c.28,5.31,8.73,7.17,9.82,1.33q3.54-18.93,8.44-37.54l-9.82-1.33a449.75,449.75,0,0,1-6.24,60.05l9.82,1.33a218,218,0,0,1,8-48.45l-9.82-1.32-3,37.56c-.44,5.55,9.05,6.93,9.82,1.33a313.66,313.66,0,0,1,7.08-35.69l-9.14,1.19c2.78,4.44.56,11.72,0,16.6l-2.22,19.76h10a143.29,143.29,0,0,1,4.83-34.08H444.6a146.21,146.21,0,0,1,1.59,25.17c-.1,5.52,8.69,6.95,9.83,1.33q3.25-16.2,7.34-32.21l-9.82-1.33a389,389,0,0,1-2.68,41.09c-.59,5,7.19,6.79,9.31,2.53a97.09,97.09,0,0,0,9.91-35h-10l-.42,16.88c-.16,6.51,9.49,6.34,10,0l2.41-30.19h-10q-.49,14.21.1,28.4c.2,4.74,6.85,7.08,9.32,2.53l10.92-20.21c3.06-5.67-5.57-10.72-8.64-5.05l-10.92,20.21,9.32,2.52q-.6-14.21-.1-28.4c.23-6.49-9.49-6.34-10,0l-2.41,30.19h10l.42-16.88c.17-6.52-9.43-6.31-10,0a83.84,83.84,0,0,1-8.54,30l9.32,2.52a389,389,0,0,0,2.68-41.09c.06-5.6-8.42-6.83-9.83-1.33q-4.08,16-7.34,32.21l9.82,1.33a162,162,0,0,0-1.95-27.82c-.78-5.06-8.45-4.46-9.64,0a154.93,154.93,0,0,0-5.19,36.73c-.13,6.58,9.3,6.24,10,0l2.67-23.71c.69-6.13,1.61-12.2-1.82-17.69-2.23-3.57-8-3.08-9.14,1.19A314.1,314.1,0,0,0,434,274.72l9.82,1.33,3-37.56c.46-5.73-8.33-6.63-9.82-1.33a229.69,229.69,0,0,0-8.34,51.1c-.27,5.53,8.85,6.93,9.82,1.33a469.7,469.7,0,0,0,6.6-62.71c.21-5.66-8.39-6.76-9.82-1.33q-4.91,18.62-8.44,37.54l9.82,1.33L435.84,249c-.29-5.35-8.6-7.13-9.82-1.33l-6.45,30.77c-1.34,6.36,7.42,8.67,9.64,2.66a74.71,74.71,0,0,0,4.6-26.23c0-5.48-8.66-7-9.82-1.33a399.62,399.62,0,0,0-6.16,40.72h10a381.18,381.18,0,0,0,1.37-41.39c-.11-5.37-9-7.11-9.82-1.32A350.49,350.49,0,0,0,416,299.74h10c-.43-15-1.3-29.84-7.48-43.72-1.54-3.45-7-3.08-8.64,0a143.88,143.88,0,0,1-23.66,32.42l7.85,1c-1.87-3.85-.09-8.53.93-12.4,1.07-4.09,2.15-8.16,3.23-12.24l6.71-25.42a5.11,5.11,0,0,0-3.49-6.15c-6.81-2.3-12.47,2.27-18.09,5.49a135.17,135.17,0,0,1-21.6,10A140.89,140.89,0,0,1,316.4,257l3.54,8.54c11.63-14.12,24.09-27.89,40.9-35.82l-6.06-7.86a237.36,237.36,0,0,0-39.56,51.54c-2.83,5,3.72,9.95,7.85,6.06l18.44-17.34L334.44,255l-14.85,18.09,7.85,6.06a234.29,234.29,0,0,1,16.88-21.57c3.56-4-1.05-11.13-6.06-7.85a134.11,134.11,0,0,0-19.87,15.84l7.07,7.08a70.22,70.22,0,0,1,8.17-7.25c5-3.76.48-12.22-5.05-8.64l-15.06,9.76,6.84,6.84c5.56-8.33,13.88-14.37,21.55-20.62l26.34-21.44-7.86-6.06-13.19,25c-2.22,4.2,2.42,9.68,6.84,6.84a65.55,65.55,0,0,0,12.7-10.61l-7.07-7.07-29.22,35.13,7.85,6.05q14-23.64,30-46L359,232.05q-.78,9.1-1.23,18.23c-.26,5.5,6.6,6,9.32,2.52,3-3.9,3.6-8.28,2.95-13-.6-4.34-7.25-4.71-9.14-1.19-2.28,4.25-5.06,9.83-4.51,14.79.52,4.73,4,7.64,8.68,6.68l-5.65-7.34A309,309,0,0,0,336,295.46c-2.59,5.78,5.8,10.9,8.63,5.05a415.34,415.34,0,0,1,28.83-50.2c3.21-4.79-3.9-10-7.86-6.06l-12.07,12,7.07,7.07A286,286,0,0,1,403,223.39l-7.52-4.32c.13,4.5-1.62,7.77-5.13,10.51l7.85,6.06a22.92,22.92,0,0,0,3.14-12.7c-.21-4.5-7.16-7.4-9.32-2.53a69.54,69.54,0,0,1-16.16,22.86l7.86,6.06q6.92-11.79,14.94-22.84c3.31-4.55-4.31-10.5-7.85-6.06a202,202,0,0,0-22.42,34.67,5,5,0,0,0,7.86,6.06l19.18-16.89-7.07-7.07a274.13,274.13,0,0,1-20.23,21.51c-6.62,6.21-14.34,12.14-23.75,12.62l4.83,6.33a80.14,80.14,0,0,1,56-58.08l-3.85-9.14c-13.25,9.79-26.52,19.67-37.52,32l7.85,6.05a95.5,95.5,0,0,1,27.66-26.33l-6.84-6.84-32,42.74,8.63,5a342.41,342.41,0,0,0,24.2-40c1.76-3.42-1.29-9.16-5.65-7.35-11.29,4.7-19.19,13.25-26.85,22.5l7.85,6.06a472.31,472.31,0,0,0,26.94-45.54c2.17-4.2-1.4-7.94-5.65-7.35-9.55,1.32-35.83,4.76-31.35,20a5,5,0,0,0,7.34,3,110.17,110.17,0,0,1,19-9.42c6.62-2.45,13.45-4.61,19.5-8.32,11.12-6.81,18.79-17.6,26.13-28.1l-9.14-3.85c-4.23,12.47-12.61,22.75-22.36,31.4A170.89,170.89,0,0,1,383,208.56c-3,2.06-6,4.08-9,6.08s-6.58,5.06-10.38,4.18l1.2,9.13c25-19.17,50.59-39.71,64.39-68.83,1.91-4-2.38-10.08-6.84-6.84-25.22,18.32-41.73,46.31-68,63.28-2.1,1.36-3.43,4.57-1.79,6.84,3.26,4.52,6.86,12.19,12.2,14.42,6,2.52,11.73-3.18,16.21-6.5,11.4-8.47,22.23-17.73,34.09-25.57a139.72,139.72,0,0,1,18.12-10.13c6.21-2.89,12.44-5.67,17.86-9.93,11-8.62,18.52-22.11,24.26-34.6,2-4.32-2.21-9.53-6.84-6.84a76.65,76.65,0,0,0-35.36,45.86c-1.5,5.42,6.33,8.85,9.14,3.85a29.94,29.94,0,0,1,7.79-9.08L441.74,179a126.55,126.55,0,0,0-4.05,68.8c1,4.73,8.67,4.81,9.65,0q8.13-39.94,14.52-80.22c1-6.25-7.62-8.91-9.65-2.66a345.26,345.26,0,0,0-13.64,59.46c-.86,6.18,7.75,9,9.64,2.66L463,177.11l-9.64-2.66a290,290,0,0,0-7.25,64.32c0,5.45,8.87,7,9.82,1.33a242.49,242.49,0,0,1,11.71-44l-9.82-1.33-2.75,43c-.36,5.63,8.52,6.78,9.82,1.32,6.14-25.83,1.29-52.69,7-78.54h-9.65a171.8,171.8,0,0,1,2.17,28.56q-.06,6.78-.64,13.55-.29,3.38-.7,6.74c-.11.86-.32,6.63-1.26,7.11l3.85-.51-1-.19,3.67,4.82c-2.5-33.57,1.6-67,5.81-100.29.53-4.15-5.95-6.83-8.53-3.54a325.56,325.56,0,0,1-21.4,24.64l8.35,4.87a56.61,56.61,0,0,1,9.15-20.23l-9.31-2.52-.22,16.06c-.07,5.76,8.15,6.63,9.82,1.33a100.77,100.77,0,0,1,15.49-30l-8.64-5c-7.35,13.21-14.83,26.43-26,36.86l7.85,6.06,7.41-13.17c2.27-4-2.61-10-6.84-6.84-11.25,8.34-22.3,17-33.42,25.44l6.84,6.84c7.12-11.78,19-20.54,28.28-30.56,10-10.82,19.4-22.25,28.76-33.67,2.45-3,1.55-7-2.21-8.36-9.9-3.47-8.53,12-8.51,17.08l.14,31.55c0,6.44,10,6.45,10,0Z" transform="translate(-183.7 -62.13)"/><path class="cls-4" d="M473,245.78q-1.08,7.75-2.62,15.42c-1.26,6.28,8.38,9,9.64,2.66q1.54-7.68,2.62-15.42c.37-2.67-.65-5.37-3.49-6.15-2.34-.65-5.78.8-6.15,3.49Z" transform="translate(-183.7 -62.13)"/><path class="cls-4" d="M470.71,263q-20.07,19.08-41.81,36.25l7.85,6.06c5.94-10.74,15.88-18.4,20.26-30.12,1.47-3.93-3.89-8.16-7.35-5.64a340.11,340.11,0,0,0-30.81,25.26c-4.08,3.78,1.39,11.2,6.06,7.85C438.38,293,451.19,282.5,464,272c5-4.11-2.12-11-7.07-7.07-9.16,7.37-18.35,14.81-26.18,23.62a100.9,100.9,0,0,0-10.39,13.87,45.21,45.21,0,0,0-4.23,7.55c-.53,1.44-.41,2.85-1,.52a9.78,9.78,0,0,1,.64-5.62c1.17-3.36-1.84-6-4.82-6.33-5.41-.58-8.06,4.33-11,8A106.49,106.49,0,0,1,388,319l7.85,6.06a93.74,93.74,0,0,1,16.61-22.73l-8.54-3.53a31.13,31.13,0,0,1-1.49,14.64c-1.59,4.6,3.74,7.2,7.35,5.65a25.3,25.3,0,0,0,11.5-10.13c2.94-4.71-4.31-10.61-7.85-6.06l-5,6.38,7.86,6.06q7.29-11.35,13.88-23.14c3.15-5.64-5.2-10.47-8.64-5a19,19,0,0,1-4.53,5.1l7.35,3-1-4.57a5,5,0,0,0-7.34-3,67.59,67.59,0,0,0-20.78,20.42l9.32,2.53c1.12-9.67,8.24-17.31,8.92-27.27.24-3.52-3.37-5.34-6.33-4.82-8.37,1.47-15.38,6-22.22,10.83l6.84,6.84L404,279.25c3.09-4.28,6.83-7.81,4.45-13.21a5,5,0,0,0-5.65-2.3,116.63,116.63,0,0,0-13.5,6.06c-4.34,2.32-8.24,5.43-12.59,7.68-5.14,2.66-6.86-.39-8.69-4.87-1.42-3.5-3.65-6.41-7.74-6.22-1.6.08-3.63.86-4.32,2.48a201.59,201.59,0,0,0-11.84,37.31,5,5,0,0,0,9.64,2.65l10.34-29.72-9.65-2.65-5.7,17c-1.6,4.79,5,8.37,8.36,4.86a21.46,21.46,0,0,0,5.31-9.09c1.89-6.33-7.29-8.46-9.65-2.66l-10.45,25.77c-2.24,5.51,6.16,8.28,9.14,3.85q8.6-12.82,16.11-26.31l-8.63-5c-1.32,2.92-2.69,5.81-4.16,8.65-.92,1.78-2.46,5.95-3.89,6.57l3.85-.51-.77-.3,3,2.3c-1.36-1.87-.59-8.15-.7-10.52l-.56-12.35a5.06,5.06,0,0,0-8.53-3.54,52.78,52.78,0,0,0-10.89,13.2l9.31,2.52.1-9.13c0-4.15-5.63-6.85-8.54-3.54l-6,6.86,8.36,4.86,1.45-6.29c1.08-4.68-4.77-8.64-8.36-4.87a148.19,148.19,0,0,1-11,10.44l8.36,2.21a6.52,6.52,0,0,1,.45-4.53c2.12-5.54-6.17-8.33-9.14-3.85a28.43,28.43,0,0,1-3,3.75l7.85,6.06,4.07-8c2.56-5-3.58-10-7.85-6.06l-5.59,5.15,7.85,6.06a33.78,33.78,0,0,1,8.65-11.12l-8.36-2.21.18,1.15.5-3.86c-2.08,4.12-9.74,6.67-13.81,7.94l6.15,6.15A121.77,121.77,0,0,1,325,272.39c2.58-4.78-4-10.58-7.85-6.06l-7.45,8.82,7.85,6.06a22.56,22.56,0,0,0,3.74-10.7c.47-4.07-4.51-5.82-7.52-4.32l-4.72,2.35,6.84,6.84-.33.31-6.84-6.84L307.65,271c-2.5,5,3.61,10.11,7.85,6.06,2.53-2.42,6.37,2.47,7.9,4.09a52.77,52.77,0,0,0,7.82,7,60.19,60.19,0,0,0,18.35,8.41c8.2,2.37,16.7,3.41,25.07,5,3.81.73,7.14,1.42,10.41,3.52s5.58,2.79,9.57,2.27c14.73-1.93,29-11.14,40.69-19.87a156.43,156.43,0,0,0,31.13-31.13l-6.84,1.8c2.56,1.42,6.76,2.83,8.67,5.06l-1.47-3.54.06,1,1.46-3.53-.68.66c-4.63,4.49,2.45,11.55,7.07,7.07,7.52-7.29-5.08-12.62-10.07-15.39-2.57-1.43-5.17-.41-6.84,1.79a140.28,140.28,0,0,1-33,31.41,130.7,130.7,0,0,1-19,10.88,39,39,0,0,1-10.41,3.53c-4.46.61-6.8-2.11-10.81-3.48-14.58-5-30.58-3.8-44.36-11.6-9.27-5.24-19.86-23.51-31.81-12.09l7.85,6.06,1.08-2.15c2-4-2.51-10.16-6.84-6.84a15.64,15.64,0,0,0-3.27,3.28c-3.25,4.36,2.84,8.84,6.85,6.84l4.71-2.36-7.52-4.31a12.16,12.16,0,0,1-2.37,5.66c-3.18,4.63,4.18,10.41,7.85,6.06l7.45-8.83-7.85-6.06a138.25,138.25,0,0,0-8.09,18c-1.32,3.59,2.7,7.22,6.15,6.15,7.61-2.37,21.64-7.68,20.11-17.52-.63-4.05-5.82-4.37-8.35-2.21A40.93,40.93,0,0,0,316,284.9c-2.47,5.05,3.56,10,7.86,6.06l5.59-5.15-7.85-6.06-4.08,8c-2.46,4.86,3.79,10.39,7.86,6.06a43.83,43.83,0,0,0,4.55-5.78l-9.14-3.85a15.66,15.66,0,0,0-.44,9.85c1,3.88,5.62,4.55,8.35,2.21q5.76-5,11-10.44L331.29,281l-1.45,6.29c-1,4.56,4.87,8.83,8.36,4.87l6-6.86-8.53-3.53-.1,9.13c0,5,6.83,6.77,9.32,2.52a44.7,44.7,0,0,1,9.33-11.17l-8.54-3.53.77,17.1c.18,4-.44,9.45,3.14,12.22,9,6.91,15.55-12.77,18-18.11,2.59-5.74-5.44-10.79-8.63-5q-7.51,13.5-16.12,26.31L352,315l10.46-25.77-9.65-2.66a10,10,0,0,1-2.73,4.68l8.35,4.87,5.71-17c2-6.13-7.54-8.69-9.65-2.65l-10.33,29.72,9.64,2.65a189.46,189.46,0,0,1,10.84-34.91l-4.32,2.47c-1.82.09-2-2.15-1.17.84a20.94,20.94,0,0,0,4.95,8,13.2,13.2,0,0,0,12.15,3.16c4.73-1.1,8.63-4.3,12.67-6.8a97.55,97.55,0,0,1,16.58-8.2l-5.65-2.3.34.77-.51-3.85c-.42,1.82-2.61,3.9-3.69,5.4L391.87,279l-8.73,12.09c-2.9,4,2.83,9.65,6.84,6.84,6.17-4.34,12.27-8.5,19.83-9.83l-6.33-4.82c-.66,9.61-7.8,17.55-8.92,27.27-.61,5.3,6.86,6.26,9.32,2.52a55.8,55.8,0,0,1,17.19-16.84l-7.35-3,1,4.57c.63,2.89,4.83,4.92,7.35,3a32.63,32.63,0,0,0,8.12-8.69l-8.64-5q-6.59,11.77-13.88,23.13c-3,4.69,4.33,10.59,7.86,6.06l5-6.38-7.86-6.06a16.17,16.17,0,0,1-7.91,6.54l7.34,5.65a37.67,37.67,0,0,0,1.85-17.3c-.51-4.07-5.2-6.89-8.53-3.54A102.73,102.73,0,0,0,387.22,320a5,5,0,0,0,7.85,6.06,108.46,108.46,0,0,0,9.16-9.16c1-1.15,6.07-8.43,6.71-8.36l-4.82-6.33c-2.17,6.22-1.58,16,5.5,18.86,8.37,3.37,12.63-5.49,15.92-11.21C436.42,294.35,450.26,283,464,272l-7.07-7.07c-12.12,10-24.26,20-37,29.14l6.06,7.85a319.94,319.94,0,0,1,28.78-23.7l-7.34-5.65c-4,10.64-13.81,17.9-19.26,27.73-2.91,5.27,3.57,9.44,7.86,6.06q21.73-17.16,41.81-36.25c4.68-4.44-2.4-11.5-7.07-7.07Z" transform="translate(-183.7 -62.13)"/><path class="cls-4" d="M410.35,323.37l6.7-6.07L410,310.23a110.65,110.65,0,0,0-12.45,18.19c-2.29,4.23,2.45,9.61,6.84,6.84,9-5.67,15.7-15.95,26.16-19l-4.86-8.36-22.12,21.83c-4.6,4.53,2.4,11.49,7.07,7.07l27.05-25.62-7.07-7.07-14.37,16.62c-3.53,4.08-8.86,8.46-5.64,14.22a5.05,5.05,0,0,0,7.85,1c8.23-7.61,14.59-17.43,24.45-23.11L436.82,305q-8.15,10.08-16.72,19.83c-4.21,4.79,2.54,11.73,7.08,7.07q15.19-15.58,29.3-32.2c4.22-5-2.07-11-7.08-7.07A152,152,0,0,1,432,304.51l5.05,8.63c9.56-6.09,19.28-12.31,27.24-20.46,8.44-8.65,13.68-19.27,18.6-30.16L473.53,260a260.54,260.54,0,0,1-11.42,55.6c-1.38,4.28-2.5,9.33-4.68,13.28-1.34,2.43-2.39,2.24-4.8,2.61a35.2,35.2,0,0,0-7.46,2.09c-8.27,3.2-16.26,6.35-25,8.14-17.55,3.59-35.73,3.14-53.51,1.83-8.83-.65-18.34-.91-26.43-4.87-7.81-3.83-13.8-10.43-19.42-16.9-2.85-3.28-6.07-6.59-8-10.55-2.16-4.56-2-9.76-1.39-14.64.27-2.18,1.34-5,1.22-7.19,0,.32.19-2.81-.41-1.08-1-.08-1.08.31-.13,1.16l.42,1.12c2,5.32,1.88,11.71,1.35,17.28-.5,5.33,6.81,6.25,9.32,2.52a59.82,59.82,0,0,0,9-21.26c1-4.81-4.62-8.45-8.36-4.87a112.12,112.12,0,0,0-18.16,22.67c-2.52,4.13,2.63,9.69,6.84,6.84,7-4.75,10.43-13.6,7.06-21.65-1.47-3.52-7-5.52-9.14-1.2a72.13,72.13,0,0,0-5.89,17.26l9.82,1.33a85.33,85.33,0,0,1,1.56-17.83h-9.64a117.5,117.5,0,0,1,7.44,28.19c.35,2.69,2,5,5,5,7.57,0,14.23-9.65,18.87-14.8a221.45,221.45,0,0,0,16.55-20.86l-8.63-5L330,307.74l8.64,5.05a67.53,67.53,0,0,0,6.05-22.37c.23-2.49-2.5-5.28-5-5-5,.55-8.65,3.12-9.93,8.1-1.5,5.79,5.89,8.24,9.14,3.85l5.77-7.81-8.64-5.05a101.2,101.2,0,0,0-10.23,32.3l9.82,1.33.5-17c.12-4.14-5.69-6.85-8.54-3.53-4.07,4.75-8.2,10.69-9.41,17s3.71,9.3,9.32,8.74c13.2-1.32,19.53-17.28,19.42-28.75-.05-4.72-7-7.11-9.32-2.52-4.58,9.16-12.2,22.8-6.6,32.88a5.06,5.06,0,0,0,5.65,2.3A41.8,41.8,0,0,0,360.75,306c2.32-4.81-3.8-10.55-7.85-6.06s-11.53,16.14-2.14,19.39c8.13,2.82,15.74-6.48,14.88-13.91-.38-3.26-2.88-5.63-6.33-4.82-12.94,3.05-19.85,14.39-25.47,25.46l9.14,1.19c-2.12-5.41-4.63-11-9.74-14.27a14.44,14.44,0,0,0-15.32-.37,5.08,5.08,0,0,0-2.3,5.64,28.88,28.88,0,0,0,21.78,20.12l-1.2-9.13-19.38,13.34c-5.27,3.62-.27,12.3,5.05,8.63l19.38-13.34c3.25-2.24,3.34-8.21-1.19-9.14a18.88,18.88,0,0,1-14.8-13.13L323,321.23c5.3-3.2,8.9,4.92,10.36,8.67s7,5.39,9.14,1.2c4.39-8.65,9.25-18.45,19.5-20.86l-6.33-4.83a7.62,7.62,0,0,1-.19,2.65l-1,1.13q1,7,1.88,3.7c1.42-1.68,2-4.13,3.6-5.89l-7.85-6.06A31.9,31.9,0,0,1,334,317.6l5.64,2.3c-1.74-3.14.36-7.63,1.45-10.73a104.9,104.9,0,0,1,5.15-12.05l-9.31-2.53a23.88,23.88,0,0,1-3.14,12.64c-.94,1.61-5.5,8-8.09,6l2.3,3c.24.93.27-.68.47-1.14.58-1.38,1.12-2.73,1.82-4.05a35.35,35.35,0,0,1,4.39-6.37l-8.54-3.54-.5,17c-.16,5.49,9.05,7,9.82,1.33a93.19,93.19,0,0,1,9.23-29.91c3-5.84-4.86-10.16-8.64-5.05l-5.77,7.81,9.14,3.86.29-.76-5-5A53.24,53.24,0,0,1,330,307.74c-2.68,5.79,5.05,10.5,8.64,5.05l15.47-23.57c3.57-5.43-5-10.24-8.63-5A201.63,201.63,0,0,1,332.33,301c-2.2,2.49-4.45,4.94-6.75,7.32-1.12,1.16-5.16,6.58-6.86,6.58l5,5a127.36,127.36,0,0,0-7.8-30.85c-1.62-4.1-8.58-5.36-9.64,0a98.59,98.59,0,0,0-1.92,20.49c.08,5.45,8.69,7,9.83,1.33A61.14,61.14,0,0,1,319.07,296l-9.14-1.19c1.56,3.73,1.1,7.94-2.47,10.36L314.3,312a101.94,101.94,0,0,1,16.6-20.65l-8.35-4.86a52.24,52.24,0,0,1-8,18.87l9.32,2.53c.8-8.39,1-24.17-8.15-28.6-10.59-5.15-13.23,9-14.14,16-1.44,11.07.81,20,7.88,28.63,6.75,8.27,14.16,16.88,23.52,22.27,9.72,5.59,20.92,6.41,31.86,7.25a268.57,268.57,0,0,0,34.74.81,138.4,138.4,0,0,0,34.28-5.69c5-1.57,9.79-3.82,14.74-5.62,4.71-1.72,11.48-.78,15.06-4.64,3.86-4.15,5.42-12.08,7.18-17.34q3.27-9.8,5.77-19.83a277.42,277.42,0,0,0,6.88-41.1c.45-4.83-7.3-7-9.32-2.53-4.55,10.07-9.22,20.13-17,28.14-7.39,7.56-16.35,13.25-25.22,18.9-5.4,3.44-.53,11.92,5.05,8.63a171.12,171.12,0,0,0,19.48-13.45l-7.08-7.07q-14.08,16.61-29.3,32.2l7.08,7.07q8.55-9.75,16.71-19.83c3.4-4.2-.81-10.88-6.06-7.86-10.69,6.17-17.57,16.44-26.47,24.68l7.85,1-.49-.89.5,3.86c.49-2,3.39-4.28,4.7-5.79l4.37-5.06,9.37-10.84c4.18-4.83-2.34-11.54-7.07-7.07l-27,25.62,7.07,7.07L432.73,315c3.52-3.47-.06-9.76-4.87-8.35-11.79,3.45-18.55,13.71-28.55,20l6.84,6.84a97.48,97.48,0,0,1,10.9-16.17c4.09-4.9-2.25-11.46-7.08-7.07l-6.69,6.07c-4.77,4.34,2.32,11.39,7.07,7.07Z" transform="translate(-183.7 -62.13)"/><path class="cls-4" d="M339,340q23.85-.83,47.72-.74l-4.82-6.33-.21.95,2.3-3c-1.76,1.31-8.09.08-10.28.13-4.16.11-8.31.43-12.44.88-7.79.85-15.52,2.13-23.23,3.42-5.93,1-3.89,9.36,1.32,9.82a367.62,367.62,0,0,0,56,.78c5.8-.37,16.54-.73,15-9.49-1.34-7.65-12.1-7.47-17.93-7.7-9.22-.37-18.08-1.75-27.18-3.15-4.14-.64-8.31-1.23-12.49-1.48a66.49,66.49,0,0,0-7.47-.08c-1.61.08-4.69,1-6.21.33-1.91-.83-.17-1.21,1.45-2.19a39.39,39.39,0,0,1,6.17-3,59.61,59.61,0,0,1,11.05-2.93c8.32-1.45,16.86-1.42,25.27-1.43l-2.52-9.31a182.31,182.31,0,0,1-16.5,10.27q-3.89,2.13-7.87,4-2.39,1.16-4.81,2.23c-1.21.54-5.1.9-2.58,1.6l3.5,3.49c-.21,1.37-.14,1.44.19.22l.85-2.58,1.7-5.17c1.3-4-3.78-8.16-7.35-5.65a25.2,25.2,0,0,0-9.16,11.55c-1.68,4,3.94,8,7.35,5.64a167.77,167.77,0,0,1,31.39-16.9l-4.86-8.36-16.91,18.72c-3.62,4,1.13,11.21,6.05,7.86,3.84-2.62,7.76-5.1,11.8-7.39,1.89-1.07,3.78-2.15,5.72-3.09a17,17,0,0,1,3.17-1.43,3.52,3.52,0,0,0-2,2.18l9.14,3.85.56-3.23c.5-2.87-1.29-6.69-4.82-6.33A36.59,36.59,0,0,0,365.46,325c-3.27,2.56-.64,9.06,3.54,8.54a162.41,162.41,0,0,1,19.21-1.32c2.41,0,6.09-.61,8.31.49,3.55,1.76,1.22,6.83.25,9.58a5,5,0,0,0,2.3,5.65c7.7,3.84,18-1.22,25.67-3.27,9.36-2.48,18.29-5.12,26.16-11,3.24-2.41,7.4-5,9.55-8.52,1.19-1.94,1.69-4.26,2.75-6.28s2.51-3.94,3.65-6a59.25,59.25,0,0,0,7.32-25.38c.28-4.15-4.37-5.75-7.52-4.32-6.4,2.88-11.19,9.4-15.83,14.46-5,5.47-9.74,11.16-14.65,16.71-4.48,5.08-9.2,9.94-15.08,13.4-6.37,3.76-13.47,6-20.49,8.18-6.15,1.94-3.64,11.06,2.65,9.65l22-4.94c6.42-1.45,12.16-2.31,16.94-7.16a84.26,84.26,0,0,0,11.18-13.81c2.89-4.58,4.18-12.34,8.76-15.52l-7.52-4.32a70.81,70.81,0,0,1-2.46,19.27c-1.45,5.22-5.18,10.89-3,16.34,2.35,5.91,12,3.33,9.64-2.66-.85-2.14,1.28-5.49,2-7.56A73.14,73.14,0,0,0,463,316.5a84.5,84.5,0,0,0,1.56-16.64c0-3.56-4.33-6.54-7.53-4.32-4.43,3.08-6.64,7.14-8.73,12a57.21,57.21,0,0,1-10,15.26c-1.69,1.93-3.52,4.62-5.86,5.8-3.12,1.58-7.52,1.88-10.89,2.64l-21,4.72,2.65,9.65c14-4.41,26.39-9.67,36.64-20.47,5.18-5.45,9.86-11.36,14.88-17,4.8-5.35,10.28-13.34,16.92-16.34l-7.52-4.31a47.71,47.71,0,0,1-5.95,20.34c-1.73,3.07-3.7,5.91-5.15,9.13-1.65,3.66-4,5.63-7.21,8.05-6.1,4.62-12.82,7-20.12,9-3.41.93-6.83,1.81-10.25,2.72-2.24.59-9.16,3.62-11.37,2.52l2.29,5.65c2.93-8.34,2.92-19-7.27-21.92-4.33-1.25-9.25-.88-13.68-.77A164.63,164.63,0,0,0,369,323.52l3.53,8.53a24.37,24.37,0,0,1,12.56-5l-4.82-6.33-.56,3.24c-.93,5.4,6,8.91,9.14,3.85,4-6.49,3.54-17.63-6.55-17.31-4.1.13-8.08,2.71-11.57,4.61a165.87,165.87,0,0,0-14.23,8.74l6.06,7.85L379.47,313c3-3.34.13-10.37-4.86-8.35a178.29,178.29,0,0,0-33.79,17.91l7.34,5.64a13,13,0,0,1,4.57-5.56L345.39,317c-1.31,3.95-4.8,10-2.24,14,2.84,4.48,7.94,2,11.65.4a177.63,177.63,0,0,0,30.8-17.27c3.9-2.72,2.72-9.32-2.53-9.32-16,0-33.34.28-47.53,8.71-5.57,3.3-10.92,9.5-6.43,16,4.93,7.16,14.62,4.18,21.83,4.45,9.41.35,18.62,2.56,27.94,3.75,4.24.54,8.46.78,12.72.95,2.46.09,4.93.46,7.37.52q3.61,1.59,2.08-3.7l-3.7.27a368.82,368.82,0,0,1-58-.65l1.33,9.82c10-1.67,20-3.35,30.15-3.83,6-.28,18.89,2.84,20.7-5.54a5.06,5.06,0,0,0-4.82-6.33q-23.86-.09-47.72.74c-6.42.22-6.45,10.22,0,10Z" transform="translate(-183.7 -62.13)"/><path class="cls-4" d="M225.71,360.49l29.5-14.84c9.37-4.71,19.48-8.87,28.18-14.78,7.43-5.05,12.69-12.06,17.92-19.24C307,303.84,312.65,296,317,287.31c3.22-6.47,8.09-15.83,6.15-23.29-2.5-9.64-12.56-6.16-18.39-2-7.62,5.42-11.92,13.22-16.95,20.88a207.85,207.85,0,0,1-18.21,23.59C255,323,238.42,337.58,221.88,352.05l7.07,7.08c20-23.93,50.69-35.19,71.93-57.87,4.41-4.71-2.31-11.38-7.07-7.07L265.36,320c-4.19,3.8,1.26,10.87,6.06,7.85a89.76,89.76,0,0,0,39.76-56c1.18-5.26-6.56-9.2-9.14-3.85a318,318,0,0,1-17.78,32q-4.78,7.54-10,14.79-2.69,3.74-5.48,7.38c-.8,1-4.31,6.81-5.82,6.85l4.82,6.33c3.06-9,13-12.08,21.44-13.48a23.34,23.34,0,0,0,3.67-.52l1.26-.08-1.67-1.49c-.71.1-3.17,4.14-3.93,4.86a39.61,39.61,0,0,1-9.93,6.63c-7.61,3.8-15.86,6.22-23.71,9.48a226.82,226.82,0,0,0-27.61,13.75c-4.12,2.42-2.55,9.6,2.52,9.32q28.19-1.57,56.26-4.68,14.21-1.59,28.37-3.59c5.95-.83,16.11-1,15.88-9.49-.21-7.34-8.58-9.41-14.37-10.12a99.18,99.18,0,0,0-24.94.63c-17.17,2.27-34.17,6.81-51.6,4.56l1.33,9.82a412.73,412.73,0,0,1,61.64-4.3c6.45,0,6.43-9.79,0-10a133.69,133.69,0,0,0-50.27,8c-4.09,1.5-5.36,8.83,0,9.65a134.27,134.27,0,0,0,62.55-5,5.11,5.11,0,0,0,3.49-6.15l-4-17.23c-1-4.31-1.35-10.15-5.76-12.48-7.83-4.13-18.88,1.74-23.74,7.89-3.17,4,1.05,11.54,6.06,7.85,1.26-.93,8-6.24,9.22-3.95,1.5,2.73-2.25,6.78-4.19,7.93l6.84,6.84a9.88,9.88,0,0,1,4.22-4.52l-5-8.63a44.54,44.54,0,0,1-17.71,6.94c-5.52.92-4.28,10.27,1.33,9.82l15.22-1.22c3.71-.3,7.86-.12,11.31-1.61a11.27,11.27,0,0,0,5.89-5.93c1.25-2.69,1.31-6.33,3.74-8.24L313,323.08a9.84,9.84,0,0,1-1.82,6.06c-2.51,3.83,1.62,8.27,5.65,7.34,2.64-.61,4.57,1.12,5.13,3.6l6.15-6.15-18-4.49c-5.75-1.44-12.76-2.17-18.15-4.62l2.3,3c.29.72.22-.16.8-.93s1.25-1.84,1.92-2.74a63.84,63.84,0,0,1,5.11-6,71.39,71.39,0,0,1,11.07-9.47l-6.84-6.85a109,109,0,0,1-10.69,18.56l9.14,3.85-1.4,1.45.83.19c.51.58,2.06,1,2.75,1.36a66.66,66.66,0,0,1,17.36,13.25l2.2-8.35c-6.65,1-8.74,9.42-5.27,14.5,4.63,6.79,16.12,7.13,23.42,8.13,19.56,2.68,39.33,2.12,59,1.52q15.27-.48,30.54-1.15c8.58-.38,18.24.27,26.52-2.36,16.87-5.35,14.95-24.42,16.33-38.57a180,180,0,0,1,6.12-31.86c2.07-7.3,6.88-17.25-.17-23.39a5.07,5.07,0,0,0-8.36,2.2c-4.52,15.56-3.08,32-7,47.63-1.77,7.05-4.64,13.86-9.8,19.12-4.57,4.65-9.73,8.37-11.29,15.06a5.1,5.1,0,0,0,3.49,6.16,14.67,14.67,0,0,0,15.37-4.5,5.07,5.07,0,0,0-2.21-8.35c-8.45-2.85-17.1-.78-23.82,4.9-4.93,4.16,2.18,11.2,7.07,7.07,4.06-3.43,9.17-4,14.09-2.33l-2.2-8.36c-1.61,1.89-3.23,2.59-5.64,1.92l3.49,6.15c1.44-6.19,8.9-10.23,12.58-15.21a53.74,53.74,0,0,0,8.51-19c3.92-15.65,2.48-32.09,7-47.63L476,266c2.3,2-.62,7.69-1.34,10.05q-1.94,6.3-3.41,12.71a198.05,198.05,0,0,0-4.31,27.3c-.61,7,.44,16.21-3.22,22.54-4.05,7-14.67,5.82-21.57,6.15-19.24.92-38.52,1.74-57.79,2-9.6.11-19.22,0-28.8-.8-4.64-.38-9.27-.91-13.86-1.69-2.52-.42-5-.86-7.53-1.46a28.64,28.64,0,0,1-2.89-.78c-.92-1.16-1.6-1.24-2.05-.25,3.9-.6,4.57-5.91,2.21-8.36a76.1,76.1,0,0,0-20.85-15.57c-5.18-2.56-13.8-3.79-15.4,3.73-1.21,5.7,5.85,8.45,9.14,3.85A109.85,109.85,0,0,0,315,306.84c1.84-4.07-2.29-10-6.84-6.84a81.63,81.63,0,0,0-15.34,13.52c-3.37,3.88-9.8,10.21-8.59,15.91,1.33,6.33,11.7,6.76,16.64,8l24.59,6.15a5.06,5.06,0,0,0,6.15-6.15c-1.78-7.94-9.67-12.38-17.43-10.58l5.65,7.34a19.17,19.17,0,0,0,3.18-11.1c-.05-4.71-5.26-6.1-8.53-3.54a12.79,12.79,0,0,0-3.95,5.75c-.61,1.59-.83,5.22-2.24,6.24-2.21,1.58-8.77.94-11.48,1.16l-11.42.92,1.33,9.82a51.39,51.39,0,0,0,20.09-7.95c5.33-3.53.59-11.86-5-8.63A19.13,19.13,0,0,0,294,335c-2.2,4.31,2.35,9.51,6.84,6.84,7.15-4.24,11.67-13.73,7.9-21.74-4.83-10.29-16.41-4.38-23,.5l6.06,7.85a15.15,15.15,0,0,1,7.46-5.49,8.28,8.28,0,0,1,3.85-.56c1,0,1,0,0-.12l.62,2.72,4.8,20.86,3.49-6.15a123.19,123.19,0,0,1-57.23,5v9.65a125.8,125.8,0,0,1,47.61-7.66v-10a428.44,428.44,0,0,0-64.3,4.66c-6.1.9-3.68,9.17,1.33,9.82,13.9,1.79,27.7-.64,41.39-2.93a190.1,190.1,0,0,1,20.44-2.65,83.92,83.92,0,0,1,10.4,0,45.43,45.43,0,0,1,5.57.63c1.73.33,3.31,2,3.38-.23s-1.27-1.11-3-.84c-1.93.29-3.86.55-5.78.82q-6.09.86-12.18,1.62Q288,349,276.39,350.16q-23.25,2.37-46.58,3.65l2.53,9.32a240.43,240.43,0,0,1,38.1-17.7c10.39-3.88,21.33-8.28,28.35-17.3,3.08-4,6.59-9.94,2.27-14.39-4-4.13-11.29-2.16-16.16-1.23-11.76,2.24-22.74,8.31-26.78,20.17-1,3,1.72,6.42,4.83,6.33,6.44-.18,9.71-5.64,13.29-10.28Q282.91,320.09,289,311a315.31,315.31,0,0,0,21.68-38l-9.14-3.85a79.57,79.57,0,0,1-35.15,50l6.05,7.86,28.45-25.78-7.07-7.07c-21.23,22.67-51.86,33.9-71.93,57.86-4.12,4.92,2.17,11.35,7.07,7.08,24.83-21.73,49.8-44.05,67.92-71.92,2.14-3.3,4.07-6.76,6.4-9.93,2.64-3.58,6-5.38,9.07-8.31.61-.58,2.67-.71,1.12-2.29a3.4,3.4,0,0,1,0,1.34c-.5,1.76-.85,3.57-1.42,5.32a70.7,70.7,0,0,1-5.24,11.92,186.39,186.39,0,0,1-13.58,20.64c-4.71,6.48-9.44,13-16.31,17.3-8.69,5.5-18.39,9.64-27.57,14.25l-28.63,14.41c-5.75,2.89-.69,11.52,5.05,8.63Z" transform="translate(-183.7 -62.13)"/><path class="cls-4" d="M480.24,256.39c-1.77,6.71-1.13,13.85-1.39,20.73-.29,7.48-.31,15.32-2.58,22.51-2.21,7-1.48,13.4-2.51,20.5-1.1,7.67-2.83,15.3-4.25,22.91-1.18,6.29,8.46,9,9.64,2.66,1.36-7.27,2.85-14.53,4.08-21.82s.42-14.44,2.68-21.6c2.08-6.57,2.34-13.56,2.71-20.39.41-7.39-.63-15.67,1.26-22.84,1.64-6.23-8-8.89-9.64-2.66Z" transform="translate(-183.7 -62.13)"/><path class="cls-4" d="M479.45,262.07c1.37,14.84.12,30.08-.17,45-.3,15.18-.69,30.37-1.44,45.54-.31,6.43,9.69,6.41,10,0,.75-15.17,1.14-30.36,1.44-45.54.29-14.88,1.54-30.12.17-45-.59-6.35-10.59-6.42-10,0Z" transform="translate(-183.7 -62.13)"/><path class="cls-4" d="M479.2,321.41c.12,7.25-1,14.3-2.21,21.42-1.1,6.3,8.54,9,9.64,2.66,1.39-8,2.7-16,2.57-24.08-.11-6.43-10.11-6.45-10,0Z" transform="translate(-183.7 -62.13)"/><path class="cls-4" d="M479.87,329.13a319.27,319.27,0,0,0-.42,32.74c.25,6.41,10.25,6.44,10,0a319.27,319.27,0,0,1,.42-32.74c.41-6.42-9.59-6.4-10,0Z" transform="translate(-183.7 -62.13)"/><path class="cls-4" d="M431.69,362.07l23.08-2.28c3.65-.36,7.32-.64,11-1.14,1.45-.2,8.47-1,8.91-2.68s-2.29-.53-2.75-.44a27.69,27.69,0,0,1-4.27.18c-3.87.09-7.75.14-11.63.21l-10.66.2-5.81.11c-2.44,0-4.27-.73-5.49,1.77l-4.31,2.47,22,.78c5.5.19,7-9,1.33-9.82-8.85-1.33-17.07.41-25.81,1.66-10,1.41-19.85-.11-29.8-1-4.45-.42-8.94-.84-13.38-.19s-8.51,2-12.86,2.57c-9.65,1.25-19.46.57-29.14,0-6.42-.4-6.4,9.6,0,10,9.3.58,18.67,1.16,28,.18a97.94,97.94,0,0,0,12-2.1,41.77,41.77,0,0,1,13.48-.6c9.21.77,18.4,2.39,27.67,1.67,9-.69,18.1-3.83,27.19-2.47l1.33-9.82-22-.78A4.92,4.92,0,0,0,425.4,353c-2.06,4.24-1.08,9.11,3.14,11.7,4.68,2.86,11.62,1.57,16.79,1.47l20.36-.38c4.82-.08,10.21.16,14.27-2.88,8.09-6.06,2-19.44-8-16.53-3,.88-5.48,2.22-8.7,2.61-3.46.43-7,.7-10.43,1l-21.16,2.09c-6.35.63-6.41,10.63,0,10Z" transform="translate(-183.7 -62.13)"/><path class="cls-4" d="M344.2,351.08a221.92,221.92,0,0,0-48.95-3.77c-5.35.19-7.13,8.86-1.33,9.82,11.13,1.85,22.26,4,33.45,5.41a98.19,98.19,0,0,0,15.33.76c2.78-.08,5.55-.24,8.33-.4,2.55-.15,6.06-1,8.52-.11l-3-2.29.64.89.79-6.06c.71-.77-2.45-.2-3.16,0a8.61,8.61,0,0,0-4,2.06,6.42,6.42,0,0,0-1,8c1.64,2.75,4.78,3.55,7.78,2.92,4.23-.88,7-2.62,11.48-1.4l-1.2-9.13a2.62,2.62,0,0,1-2.77.24l-1.33,9.82a325.67,325.67,0,0,0,73.7-5L431.11,358c.68-1.36.45-1.77-.71-1.23l-3.78.22c-2.52.12-5,.22-7.56.28-5.05.11-10.09.08-15.13-.05-6.44-.17-6.44,9.83,0,10,8.49.22,17.05.24,25.52-.39,5.9-.44,10.88-2.39,11.66-8.83.43-3.51-3.52-5.33-6.33-4.82a313.74,313.74,0,0,1-71,4.62c-5.68-.27-6.72,8.37-1.33,9.82a13.52,13.52,0,0,0,10.48-1.25c3.84-2,2.85-8-1.19-9.14a23.44,23.44,0,0,0-8.93-.78,22,22,0,0,0-4.32.92c-.66.22-2.12,1.24-2.77,1l3,2.3q-4,4.89-.24,4.47a17.34,17.34,0,0,0,2.59-.25,7.63,7.63,0,0,0,4-2.46c1.38-1.52,2.1-4.24.78-6.06-3.3-4.58-7.78-3.86-13-3.56a163.37,163.37,0,0,1-18.51.44c-12.64-.72-25.32-3.67-37.79-5.74l-1.33,9.82a209.55,209.55,0,0,1,46.3,3.42c6.29,1.18,9-8.46,2.65-9.65Z" transform="translate(-183.7 -62.13)"/><path class="cls-4" d="M425.9,367.61a56.88,56.88,0,0,1,9.72-1.2l-1.33-9.82A26.72,26.72,0,0,0,428,358.8c-4.45,2.15-2.31,9.6,2.53,9.32,3.18-.18,6.37.11,9.54-.09,2.36-.14,4.64-.74,7-.67,5.7.17,11.17.75,16.91.32,2.92-.21,6.08-3.06,4.82-6.33l-2-5.25-7.34,5.65,7.16,3.68c3.28,1.68,7.6-.35,7.53-4.32a6.07,6.07,0,0,0-1.86-4.48c-4.43-4.69-11.49,2.39-7.07,7.07l.38.4-1.46-3.54v.55l7.52-4.32-7.17-3.68c-3.49-1.8-9,1.27-7.34,5.65l2,5.25,4.82-6.33c-5.73.43-11.21-.11-16.91-.32a40.73,40.73,0,0,0-6,.56c-3.49.37-7,0-10.51.2l2.52,9.32a11.66,11.66,0,0,1,3.86-1.21c5.52-1.13,4.28-10-1.33-9.82A71.43,71.43,0,0,0,423.25,358c-6.29,1.35-3.63,11,2.65,9.64Z" transform="translate(-183.7 -62.13)"/><path class="cls-4" d="M466.31,367.75h16.58c6.44,0,6.45-10,0-10H466.31c-6.44,0-6.45,10,0,10Z" transform="translate(-183.7 -62.13)"/><path class="cls-4" d="M484.78,367.75c6.44,0,6.45-10,0-10s-6.44,10,0,10Z" transform="translate(-183.7 -62.13)"/><path class="cls-4" d="M487.69,367.3a1.5,1.5,0,0,0,0-3,1.5,1.5,0,0,0,0,3Z" transform="translate(-183.7 -62.13)"/><path class="cls-4" d="M313.32,247.51a35.59,35.59,0,0,1-3.12,3.38c-.52.49-1.06,1-1.61,1.42s-.64.52-.24.2c-.33.24-.67.47-1,.7l8.82,3.59.11.83-.82,3c-.5.54-.46.54.11,0a10.31,10.31,0,0,0,1.31-1.62c.33-.45.63-.91.92-1.4.06-.11,1-1.55.28-.61a9,9,0,0,1,.74-.77c-.52.36-.5.35.07,0,4-2.67,3.67-7.64,0-10.37s-8.31-.72-10.78,2.52c-2.7,3.55.93,9.38,5.18,9a11.09,11.09,0,0,0,9-5.27,6.05,6.05,0,0,0-2.15-8.21,6.13,6.13,0,0,0-8.21,2.15c.15-.22,1.15-.8.55-.51s.69-.15.83-.16l5.18,9,.25-.34-2.15,2.16a5.44,5.44,0,0,1-3.73,0V245.86a17.62,17.62,0,0,0-5.55,6c-.23.39-.78.91-.21.35a9.69,9.69,0,0,0-1.8,2.06,6.89,6.89,0,0,0-.68,5.75c1.27,3.33,5.34,6,8.81,3.59a40.22,40.22,0,0,0,8.41-7.59c2-2.43,2.55-6.14,0-8.48-2.2-2-6.37-2.6-8.49,0Z" transform="translate(-183.7 -62.13)"/><path class="cls-4" d="M316.27,255.15c7.72,0,7.74-12,0-12s-7.73,12,0,12Z" transform="translate(-183.7 -62.13)"/><path class="cls-4" d="M227.84,348.57c8.21-5.9,16.32-11.77,23.75-18.64,8-7.42,15.69-15.22,23.48-22.87s15.36-15.16,23.11-22.67c3.31-3.21,7.37-5.73,9.89-9.66,3.08-4.8,5.52-10.13,8.23-15.15,3.72-6.87-6-12.37-10.36-6.06-8.23,12-18.3,21.65-28.76,31.65-10,9.57-21.51,18.05-30.61,28.49-8.08,9.26-14.55,18.8-24.77,25.92a47.63,47.63,0,0,0-6.68,5.31c-1.9,1.91-3.31,4.16-5.57,5.66-5,3.32-9.29,6.51-7.53,13.3.75,2.92,4.37,5.34,7.38,4.19,9.54-3.64,20.27-3.47,30.34-4.28l31.84-2.58c2.35-.19,5.42-1.71,5.79-4.4a17.73,17.73,0,0,0-.09-6.29l-8.82,6.78c10.3,5.63,21.81,6.18,33.3,5.69a312.75,312.75,0,0,0,38.12-4.1c7.6-1.27,4.37-12.83-3.19-11.57a288.79,288.79,0,0,1-33.05,3.58c-9.84.49-20.22.91-29.12-4-4.81-2.63-9.81,1.69-8.81,6.77l.09-.09,5.78-4.41-33.84,2.74c-10.45.84-21.62.77-31.53,4.55l7.38,4.19q-1,2.18.3,1.17c.57-.32,1.14-.62,1.72-.92a21.83,21.83,0,0,0,2.9-2.07c2.11-1.8,3.63-4.12,5.64-6,4-3.77,9-6.29,13.13-10,8.72-7.86,14.66-18.24,23.15-26.32,19.39-18.45,40.55-34.73,55.87-57l-10.36-6.06c-2.44,4.52-4.65,9.3-7.38,13.65-2.36,3.75-6.32,6.26-9.5,9.35-7.53,7.32-15,14.71-22.47,22.06S252,313.12,244.47,320.17a220.18,220.18,0,0,1-22.68,18c-6.22,4.47-.23,14.88,6.05,10.36Z" transform="translate(-183.7 -62.13)"/><path class="cls-4" d="M351,355.86c-10.85.17-21.7-.05-32.53-.72a51.92,51.92,0,0,0-13.7.72c-5.64,1.06-11.42-.1-17.05-.67-22.43-2.28-45-1.38-67.48-.48-7.7.31-7.74,12.31,0,12,22.47-.9,45.05-1.8,67.48.48,5.31.54,10.64,1.48,16,.92,4.87-.5,8.86-1.35,13.81-1,11.15.72,22.32.95,33.49.78,7.72-.12,7.74-12.12,0-12Z" transform="translate(-183.7 -62.13)"/><path class="cls-4" d="M319.44,355.62h-8.6c-7.72,0-7.73,11.95,0,12q6.11,0,12.2-.15c7.7-.22,7.73-12.22,0-12q-6.1.18-12.2.15v12h8.6c7.72,0,7.73-12,0-12Z" transform="translate(-183.7 -62.13)"/><path class="cls-4" d="M287.54,356.23c-25.67-2.28-51.5-1.3-77.21-.55-7.78.23-7.66,11.47,0,12a104.27,104.27,0,0,0,12.87.16c4-.22,8.05-1.17,12-.86l-3-11.18a2.27,2.27,0,0,1-1.93.53c-7.72.06-7.73,11.94,0,12,7.14.06,14.32.32,21.46.11s14-2.17,21.12-2.19c7.72,0,7.73-12,0-12-7.12,0-14,2-21.12,2.19s-14.32-.05-21.46-.11v12a15.53,15.53,0,0,0,8-2.17c5.45-3.13,2.65-10.73-3-11.18-4-.31-8.05.64-12,.86a104.27,104.27,0,0,1-12.87-.16v12c25.71-.75,51.54-1.73,77.21.55,7.69.69,7.64-11.32,0-12Z" transform="translate(-183.7 -62.13)"/><path class="cls-4" d="M274.9,355.82c-4.06-.42-8.06.41-12.11.55a6.13,6.13,0,0,0-6,6,6.06,6.06,0,0,0,6,6c4-.14,8-1,12.11-.55,3.23.34,6-3,6-6,0-3.52-2.76-5.66-6-6Z" transform="translate(-183.7 -62.13)"/><path class="cls-4" d="M209.66,365.08l4.32-4.21-8.48-8.48a13.61,13.61,0,0,1-4.1,2.77l8.2,8.21c1.61-2.84,4.74-4.88,7.18-7q4.65-4,9.24-8.08,8.82-7.85,17.42-15.94c2.73-2.58,5.36-5.4,8.27-7.78,2.5-2,5.44-3.22,8.09-5,4.37-3,7.73-9.35,12.93-10.76,7.44-2,4.28-13.59-3.19-11.57-6.77,1.83-9.88,7-14.93,11.23-2.71,2.28-6.12,3.56-9,5.7a111.19,111.19,0,0,0-9.34,8.43q-9.6,9.09-19.49,17.86c-5.75,5.09-13.74,10.07-17.59,16.86-3.12,5.52,3,10.68,8.21,8.21a23.5,23.5,0,0,0,6.53-4.65c5.52-5.42-2.95-13.87-8.48-8.48l-4.32,4.21c-5.54,5.39,2.94,13.87,8.48,8.48Z" transform="translate(-183.7 -62.13)"/><path class="cls-4" d="M350.75,256.24c7.72,0,7.73-12,0-12s-7.74,12,0,12Z" transform="translate(-183.7 -62.13)"/><path class="cls-4" d="M345.09,247.66a53.51,53.51,0,0,1-18.64,7.86c-7.55,1.63-4.35,13.2,3.19,11.57A63.08,63.08,0,0,0,351.15,258c6.41-4.24.41-14.64-6.06-10.36Z" transform="translate(-183.7 -62.13)"/><path class="cls-4" d="M306.87,253.51c-7.24,5.87-15.72,11.13-20.47,19.3-2.1,3.6-6.06,3.89-9.09,6.6-3.31,3-5.84,6.6-9.25,9.56a190.27,190.27,0,0,0-19.69,19.13c-6.24,7.28-12.2,14.56-19.22,21.13-5.65,5.3,2.85,13.77,8.48,8.49,6.8-6.36,12.66-13.34,18.64-20.44s13.2-13.66,20.28-19.82a50,50,0,0,0,5-4.62c1.24-1.41,2.22-3.19,3.67-4.4,3.17-2.64,7-3.06,9.63-6.63,2.52-3.38,4-6.4,7.32-9.14,4.37-3.57,8.77-7.11,13.15-10.67,6-4.87-2.53-13.31-8.48-8.49Z" transform="translate(-183.7 -62.13)"/><path class="cls-4" d="M285.07,286.35c7.72,0,7.74-12,0-12s-7.73,12,0,12Z" transform="translate(-183.7 -62.13)"/><path class="cls-4" d="M287.69,283.07c7.72,0,7.74-12,0-12s-7.73,12,0,12Z" transform="translate(-183.7 -62.13)"/><path class="cls-4" d="M282.89,288.31c7.72,0,7.74-12,0-12s-7.73,12,0,12Z" transform="translate(-183.7 -62.13)"/><path class="cls-4" d="M292.27,278.93c7.72,0,7.74-12,0-12s-7.73,12,0,12Z" transform="translate(-183.7 -62.13)"/><path class="cls-4" d="M290.31,280c7.72,0,7.73-12,0-12s-7.74,12,0,12Z" transform="translate(-183.7 -62.13)"/><path class="cls-4" d="M296,275.22c7.72,0,7.74-12,0-12s-7.73,12,0,12Z" transform="translate(-183.7 -62.13)"/><path class="cls-4" d="M293.58,277.18c7.72,0,7.74-12,0-12s-7.73,12,0,12Z" transform="translate(-183.7 -62.13)"/><path class="cls-4" d="M298.38,272.16c7.72,0,7.74-12,0-12s-7.73,12,0,12Z" transform="translate(-183.7 -62.13)"/><path class="cls-4" d="M302.09,268.67c7.72,0,7.74-12,0-12s-7.73,12,0,12Z" transform="translate(-183.7 -62.13)"/><path class="cls-4" d="M305.58,265c7.72,0,7.74-12,0-12s-7.73,12,0,12Z" transform="translate(-183.7 -62.13)"/><path class="cls-4" d="M309.29,261.91c7.72,0,7.74-12,0-12s-7.73,12,0,12Z" transform="translate(-183.7 -62.13)"/><path class="cls-4" d="M241.37,314.75c-4.34,4.68-10.18,9.42-13.5,14.91-1.31,2.18-2.66,2.88-4.45,4.73s-2.61,4.8-4.53,6.17c-6.25,4.43-.26,14.84,6.05,10.36a21.54,21.54,0,0,0,5.62-6c1.73-2.55,4.37-3.79,6.12-6.29a50.17,50.17,0,0,1,4.85-6.43l8.33-9c5.25-5.65-3.22-14.16-8.49-8.49Z" transform="translate(-183.7 -62.13)"/><path class="cls-4" d="M224.52,348.74A72.2,72.2,0,0,0,235.39,337c2-2.59.41-6.71-2.16-8.21-3.07-1.8-6.25-.45-8.21,2.15a61.21,61.21,0,0,1-9,9.34c-2.46,2.11-2.16,6.33,0,8.49,2.45,2.44,6,2.11,8.49,0Z" transform="translate(-183.7 -62.13)"/><path class="cls-4" d="M482.4,79.21a7.38,7.38,0,0,0,2.4-2.12c.79-.93,1.73-1.45,2.58-2.29s1.26-2.16,2.13-3.1a5.91,5.91,0,0,0,1.85-2.55c.53-1.87-2.28-2.61-2.9-.8-1,3-1,6-1.14,9.14-.06,1.75-.84,4.61,1.06,5.61l-.75-1.29,0,.54c.07,1.61,2.64,2.14,3,.4.4-2.18,1-6.49-1.39-7.9s-4.59,1.23-5.65,2.94a1.52,1.52,0,0,0,1.3,2.26,11,11,0,0,0,1.81,0,1.5,1.5,0,0,0,0-3,11,11,0,0,1-1.81,0l1.29,2.26.83-1.16c.63-.75.9-.64.8.33a7.8,7.8,0,0,1-.07,3.47l2.94.4a7.32,7.32,0,0,0-.46-1.6l-.3-.24.34-.28a12.43,12.43,0,0,1,.08-2.28c.1-3,.08-6,1.05-8.8l-2.9-.8c-.22.78-1.27,1.35-1.75,2-.76,1-1,1.93-2,2.75-1.25,1.05-2.35,2.86-3.79,3.55-1.74.84-.22,3.43,1.51,2.59Z" transform="translate(-183.7 -62.13)"/><path class="cls-4" d="M190.71,368.46a1.5,1.5,0,0,0,0-3,1.5,1.5,0,0,0,0,3Z" transform="translate(-183.7 -62.13)"/><path class="cls-4" d="M191.8,368.06c2.27-1.78,5.34-2.08,7.49-3.84,1.85-1.51,1.11-2.86,1.37-4.88.18-1.47-2.19-2.07-2.8-.76-.71,1.54-2.34,2.1-3.49,3.26s-1.8,3-2.64,4.54a1.51,1.51,0,0,0,1.69,2.2c3.51-1.15,8-.87,11.59-.39,1,.14,1.63-1.06,1.45-1.9-.61-2.86-5.21-3.32-7.57-3.31a1.5,1.5,0,0,0,0,3c.67,0,4.46.08,4.68,1.11l1.44-1.9c-3.92-.52-8.58-.75-12.39.5l1.7,2.2c1.09-2,1.64-3.58,3.56-5a7.18,7.18,0,0,0,2.57-2.79l-2.79-.75c-.17,1.32.25,2.05-1.44,3.12a15,15,0,0,1-2.11.76,19.76,19.76,0,0,0-4.43,2.72c-1.52,1.19.62,3.29,2.12,2.12Z" transform="translate(-183.7 -62.13)"/></svg>