<svg width="24" height="24" xmlns="http://www.w3.org/2000/svg">
 <title>Gatsby icon</title>

 <g>
  <title>background</title>
  <rect fill="none" id="canvas_background" height="302" width="302" y="-1" x="-1"/>
 </g>
 <g>
  <title>Layer 1</title>
  <path fill="#331832" id="svg_1" d="m12.001,0.007c-6.675,0 -11.994,5.319 -11.994,11.993s5.319,11.995 11.993,11.995s11.994,-5.319 11.994,-11.994s-5.318,-11.994 -11.993,-11.994zm-9.387,12.098l9.283,9.283c-5.111,0 -9.283,-4.172 -9.283,-9.283zm11.473,9.074l-11.264,-11.264c0.937,-4.172 4.693,-7.301 9.177,-7.301a9.476,9.476 0 0 1 7.614,3.86l-1.355,1.146a7.657,7.657 0 0 0 -6.362,-3.337a7.555,7.555 0 0 0 -7.197,5.11l9.804,9.805c2.4,-0.835 4.276,-2.92 4.798,-5.424l-4.068,0l0,-1.773l6.154,0c0,4.485 -3.129,8.24 -7.301,9.178z"/>
 </g>
</svg>