<svg width="300" height="300" xmlns="http://www.w3.org/2000/svg" style="vector-effect: non-scaling-stroke;" stroke="null">

 <g stroke="null">
  <title stroke="null">background</title>
  <rect stroke="null" fill="#ffffff" id="canvas_background" height="302" width="302" y="-1" x="-1"/>
 </g>
 <g stroke="null">
  <title stroke="null">Layer 1</title>
  <path stroke="#331832" id="svg_3" fill="#331832" d="m242.581263,255.828004c-0.232166,0.052646 -0.464331,0.631258 -0.464331,0.946642c-0.046518,2.103376 -0.093039,7.677936 -0.093039,11.464011c0,0.105292 0.139126,0.315384 0.278685,0.315384c0.696928,0.052646 1.812101,0.105292 3.810281,0.105292c1.99818,0 3.159871,-0.315384 3.810716,-0.630768c1.67254,-0.946641 2.462508,-2.997863 2.462508,-5.259177c0,-5.100746 -3.159871,-7.046675 -7.85316,-7.046675c-0.325205,-0.052155 -1.254298,-0.052155 -1.95166,0.105291l0,0l0,0zm11.98908,23.506636c0,-5.206038 -3.392472,-8.098611 -9.526136,-8.098611c-0.278686,0 -2.230346,-0.052646 -2.69511,0.052646c-0.139559,0.052646 -0.325204,0.157937 -0.325204,0.315876c0,3.73343 -0.046519,9.676021 0.093039,11.989486c0.092606,0.999288 0.74345,2.419252 1.533418,2.839926c0.836054,0.525968 2.741628,0.630767 4.042446,0.630767c3.671155,0 6.877547,-2.313467 6.877547,-7.73009l0,0l0,0zm-21.468263,-26.398715c0.46433,0 1.85862,0.157444 5.436737,0.157444c3.392037,0 6.087146,-0.1048 9.386578,-0.1048c4.042445,0 9.618742,1.630056 9.618742,8.466149c0,3.365893 -2.091219,6.047881 -4.832849,7.362552c-0.139125,0.052646 -0.139125,0.157447 0,0.210093c3.903321,1.104578 7.342314,3.839214 7.342314,8.992606c0,5.048595 -2.788149,8.256056 -6.83103,10.254632c-2.462944,1.209381 -5.529776,1.630055 -8.643129,1.630055c-2.369905,0 -8.735736,-0.315382 -12.267332,-0.21009c-0.371723,-0.157939 0.325204,-2.051224 0.650409,-2.366606c0.836488,-0.052646 1.486897,-0.105291 2.369905,-0.420675c1.25473,-0.36803 1.393857,-0.788704 1.579935,-2.944726c0.093041,-1.840638 0.093041,-8.36184 0.093041,-12.989266c0,-6.363267 0.046518,-10.675309 0,-12.778685c-0.04652,-1.630055 -0.557804,-2.15602 -1.579937,-2.471895c-0.789968,-0.157447 -2.091219,-0.36803 -3.159871,-0.525476c-0.232601,-0.263229 0.557368,-2.051222 0.836487,-2.261312l0,0l0,0zm-26.812396,32.709335c1.115605,0.998795 3.299431,1.41947 5.251091,1.41947c2.509464,0 5.018493,-0.525475 7.434917,-2.997371c2.462946,-2.524052 4.182005,-6.41542 4.182005,-12.620747c0,-5.942588 -1.99818,-10.780598 -6.087145,-13.620031c-2.323384,-1.630547 -5.297613,-2.31396 -8.736169,-2.31396c-1.022133,0 -1.998181,0.052645 -2.602069,0.368029c-0.13956,0.105292 -0.464765,0.578612 -0.464765,0.84135c-0.093039,1.051935 -0.093039,9.150054 -0.093039,13.883263c0,4.890656 0,11.726749 0.093039,12.515453c0,0.789197 0.325205,1.998576 1.022135,2.524544l0,0l0,0zm-10.548271,-32.709335c0.883007,0 4.275045,0.157444 5.901501,0.157444c2.927709,0 5.018492,-0.157444 10.548269,-0.157444c4.646769,0 8.55009,1.419962 11.338239,4.101459c3.392037,3.313246 5.158053,7.888518 5.158053,13.462587c0,7.940673 -3.206393,12.515945 -6.412785,15.145289c-3.205957,2.681987 -7.388398,4.259396 -13.335984,4.259396c-3.159872,0 -8.596609,-0.105292 -13.104252,-0.157938l-0.046521,0c-0.232165,-0.472828 0.371725,-2.313466 0.743448,-2.366112c1.208212,-0.157937 1.533416,-0.210583 2.13774,-0.473321c0.975613,-0.420676 1.161691,-0.999287 1.301251,-2.944726c0.139126,-3.628631 0.092605,-7.993319 0.092605,-12.93662c0,-3.52334 0.046521,-10.412571 -0.046519,-12.621239c-0.139125,-1.840147 -0.836054,-2.313466 -2.230345,-2.629341c-0.696929,-0.157447 -1.626455,-0.36803 -2.927272,-0.525476c-0.18608,-0.368521 0.650409,-1.998576 0.882572,-2.313958l0,0l0,0z"/>
  <path stroke="#331832" id="svg_4" fill="#331832" d="m106.63836,281.83103c-1.078067,-0.162828 -1.85434,-0.379424 -2.803298,-0.921676c-0.129109,-0.108551 -0.344965,-0.650295 -0.344965,-0.867399c-0.086341,-1.897626 -0.086341,-7.319126 -0.086341,-10.951552c0,-2.927853 -0.387734,-5.475775 -1.379862,-7.26485c-1.16441,-2.060454 -2.846066,-3.253002 -5.002201,-3.253002c-1.897511,0 -4.441781,1.626755 -6.554745,3.903805c-0.043171,0.053769 -0.388136,0.433699 -0.344965,-0.162828c0,-0.596527 0.086342,-1.789074 0.129513,-2.602198c0.043171,-0.759355 -0.301794,-1.138779 -0.301794,-1.138779c-1.380265,0.8674 -5.261227,2.006179 -6.68426,2.168499c-1.034896,0.271379 -1.293519,1.518203 -0.215452,1.951902l0.043172,0c1.164006,0.4337 1.940279,0.921676 2.543867,1.409651c0.431308,0.4337 0.388136,1.030227 0.388136,1.518203c0.043172,4.066125 0.043172,10.300748 -0.085938,13.716577c-0.043172,1.355376 -0.344966,1.842844 -1.121238,2.059947l0.085938,-0.054276c-0.603589,0.162828 -1.078067,0.325148 -1.811169,0.4337c-0.258623,0.325148 -0.258623,2.060454 0,2.439878c0.474479,0 2.975579,-0.162827 5.045775,-0.162827c2.846065,0 4.312269,0.162827 5.04537,0.162827c0.301794,-0.433699 0.388137,-2.060454 0.215453,-2.439878c-0.819444,-0.054276 -1.423033,-0.16232 -1.983451,-0.379424c-0.776273,-0.217103 -0.992128,-0.704571 -1.035299,-1.843351c-0.085939,-2.873577 -0.085939,-8.945373 -0.085939,-13.065774c0,-1.138779 0.258624,-1.68103 0.517246,-2.006178c0.991726,-1.083996 2.587443,-1.843351 4.010475,-1.843351c1.379862,0 2.285648,0.542252 2.975579,1.247331c0.948554,0.975444 1.250348,2.385095 1.379861,3.415322c0.215453,2.331326 0.129514,6.939703 0.129514,10.951552c0,2.168498 -0.129514,2.71075 -0.776273,2.981622c-0.301795,0.162827 -1.078068,0.379931 -1.983854,0.487975c-0.301795,0.379424 -0.215452,2.060455 0,2.439878c1.250752,0 2.716956,-0.162828 4.87309,-0.162828c2.673381,0 4.398611,0.162828 5.088542,0.162828c0.215452,-0.325148 0.301794,-1.897626 0.12911,-2.331326l0.000403,0l0,0zm11.945082,-20.710049c-2.285647,0 -3.70868,2.222774 -3.70868,5.692372c0,3.523874 1.250349,7.589999 4.786748,7.589999c0.603588,0 1.724826,-0.325148 2.242073,-1.083996c0.819444,-0.975951 1.380266,-2.927853 1.380266,-4.9878c0,-4.499825 -1.768403,-7.210575 -4.700407,-7.210575l0,0l0,0zm-0.302197,23.96305c-0.862212,0 -1.466204,0.325149 -1.853937,0.596528c-1.811573,1.46342 -2.630614,2.87307 -2.630614,4.554101c0,1.571971 0.474076,2.818794 1.509376,3.903297c1.250348,1.355375 2.975175,2.006178 5.174481,2.006178c4.398611,0 6.339293,-2.982129 6.339293,-5.909475c0,-2.060455 -0.819444,-3.41583 -2.5011,-4.174677c-1.20758,-0.650803 -3.406886,-0.975952 -6.037499,-0.975952l0,0l0,0zm0.302197,14.096002c-2.630613,0 -4.528124,-0.705079 -6.166609,-2.277051c-1.595717,-1.518202 -2.285647,-3.795252 -2.285647,-5.367224c0,-0.433699 0.086341,-1.626754 0.862614,-2.71075c0.474076,-0.650803 1.508972,-1.897626 3.967304,-4.011849c0.085939,-0.054275 0.12911,-0.108551 0.12911,-0.217103c0,-0.108552 -0.086342,-0.217104 -0.17228,-0.270872c-2.027025,-0.975952 -2.630614,-2.54843 -2.803298,-3.41583l0,-0.108551c-0.042768,-0.325148 -0.12911,-0.650296 0.259026,-0.975952c0.301794,-0.270872 0.733102,-0.596019 1.207177,-0.975443c0.733102,-0.542251 1.509375,-1.138779 1.983854,-1.626754c0.086342,-0.108552 0.086342,-0.216597 0.086342,-0.325149c0,-0.108551 -0.086342,-0.217103 -0.172685,-0.270872c-3.018345,-1.24733 -4.527721,-4.066632 -4.527721,-8.295077c0,-2.765026 0.991726,-5.25918 2.759724,-6.831151c1.207581,-1.193055 4.225926,-2.656474 6.20978,-2.656474l0.129514,0c2.026621,0.053768 3.147859,0.59602 4.743173,1.301099c0.862615,0.379424 1.682059,0.541744 2.803297,0.541744c1.681656,0 2.414758,-0.650296 3.018346,-1.409144c0.043171,0.108045 0.129514,0.379424 0.172685,1.083996c0.043171,0.705079 -0.129514,1.734799 -0.560821,2.494154c-0.344966,0.59602 -1.120835,1.030227 -1.897108,1.030227l-0.215855,0c-0.776273,-0.108552 -1.121239,-0.217104 -1.121239,-0.217104l-0.172281,0.108552c-0.043171,0.108552 0,0.216596 0.043172,0.379424l0.04317,0.108552c0.085939,0.487975 0.258624,1.951395 0.258624,2.331326c0,4.445549 -1.423034,6.396944 -2.932408,7.86087c-1.466204,1.355375 -3.14786,2.222775 -5.045371,2.439878c-0.043171,0 -0.215452,0 -0.603589,0.054277c-0.215855,0 -0.517649,0.054275 -0.56082,0.054275l-0.043171,0c-0.344966,0.108045 -1.207177,0.650296 -1.207177,1.571972c0,0.813123 0.388136,1.789074 2.242072,1.951902c0.388137,0.054276 0.776273,0.054276 1.207581,0.108551c2.457929,0.216597 5.519849,0.487976 6.942883,1.083996c1.98345,0.921675 3.234202,3.14445 3.234202,5.801431c0,4.011849 -2.285648,7.752826 -6.080268,10.083646c-1.85434,1.030226 -3.708681,1.572478 -5.735302,1.572478l0,0l0,0zm24.580096,-37.78818c-0.905787,0 -1.725231,0.270872 -2.328819,0.813124c-1.681656,1.301099 -2.544271,3.903804 -2.544271,7.69855c0,7.10253 2.846065,12.09033 6.899711,12.09033c1.207581,0 2.156134,-0.433699 2.975578,-1.301098c1.250348,-1.301607 1.897511,-3.903805 1.897511,-7.53623c0,-7.047748 -2.803297,-11.764676 -6.89971,-11.764676l0,0l0,0zm0.776273,23.204203c-7.331019,0 -9.961632,-6.776875 -9.961632,-13.120051c0,-4.445548 1.423032,-7.861377 4.269097,-10.301255c2.027025,-1.571971 4.441783,-2.439371 6.597918,-2.439371c5.605788,0 9.530324,5.042076 9.530324,12.306927c0,4.933524 -1.552546,8.836822 -4.528125,11.222424c-1.423032,1.192547 -3.880961,2.331326 -5.907986,2.331326l0.000404,0l0,0zm-76.845378,-23.204203c-0.905786,0 -1.724826,0.270872 -2.328818,0.813124c-1.681656,1.301099 -2.544271,3.903804 -2.544271,7.69855c0,7.10253 2.846065,12.09033 6.899711,12.09033c1.20758,0 2.156135,-0.433699 2.975578,-1.301098c1.250348,-1.301607 1.897512,-3.903805 1.897512,-7.53623c0,-7.047748 -2.760127,-11.764676 -6.899712,-11.764676l0,0l0,0zm0.776273,23.204203c-7.331018,0 -9.961632,-6.776875 -9.961632,-13.120051c0,-4.445548 1.423033,-7.861377 4.269098,-10.301255c2.027025,-1.571971 4.441783,-2.439371 6.597917,-2.439371c5.606192,0 9.530325,5.042076 9.530325,12.306927c0,4.933524 -1.552546,8.836822 -4.528125,11.222424c-1.379861,1.192547 -3.83779,2.331326 -5.907583,2.331326l0,0l0,0zm-49.289703,-0.542251c-0.086342,-0.162321 -0.172684,-0.650296 -0.129513,-1.246824c0,-0.4337 0.086342,-0.705079 0.129513,-0.813124c0.905383,-0.162827 1.379862,-0.325655 1.897108,-0.487975c0.862615,-0.271379 1.207581,-0.8674 1.250752,-2.222775c0.129513,-3.253001 0.129513,-9.433856 0.086342,-13.716577l0,-0.108552c0,-0.487975 0,-1.084503 -0.474479,-1.518203c-0.689931,-0.541744 -1.509375,-1.02972 -2.587442,-1.40965c-0.388136,-0.162321 -0.64676,-0.4337 -0.603588,-0.758848c0,-0.325148 0.258623,-0.704572 0.819443,-0.813123c1.423033,-0.162828 5.13131,-1.3011 6.597514,-2.114223c0.086342,0.108044 0.215855,0.433699 0.215855,0.867399l-0.04317,0.59602c-0.043172,0.596527 -0.086343,1.301607 -0.086343,2.006178c0,0.216597 0.172685,0.379424 0.344966,0.379424c0.086342,0 0.172684,-0.054276 0.259026,-0.108552c2.759723,-2.710749 5.260823,-3.686701 6.554342,-3.686701c2.113367,0 3.751852,1.247331 5.002604,3.849529c0.085939,0.162827 0.172281,0.216596 0.301794,0.216596c0.086342,0 0.215452,-0.053769 0.258623,-0.16232c2.544272,-2.439878 5.088543,-3.903805 6.770199,-3.903805c4.010474,0 6.382464,3.740977 6.382464,10.084153c0,1.789075 0,4.1204 -0.043171,6.235131c0,1.897119 -0.043171,3.632425 -0.043171,4.879248c0,0.270872 0.301794,1.138272 0.776273,1.301099c0.603588,0.379424 1.423033,0.542252 2.5011,0.758848l0.043171,0c0.086342,0.379424 -0.086342,1.789075 -0.258623,2.060454c-0.259027,0 -0.647163,0 -1.078067,-0.054276c-0.819445,-0.054276 -1.983854,-0.108551 -3.277373,-0.108551c-2.673785,0 -4.053646,0.054275 -5.39074,0.162827c-0.085939,-0.433699 -0.12911,-1.734799 0,-2.060454c0.776273,-0.162321 1.164409,-0.325148 1.638888,-0.487976c0.862615,-0.325148 1.078067,-0.813123 1.121238,-2.222774c0,-1.02972 0.172281,-9.812773 -0.086342,-11.927503c-0.258623,-2.168499 -1.552546,-4.716421 -4.398611,-4.716421c-1.078067,0 -2.759723,0.542251 -4.398612,2.114222c-0.085938,0.108552 -0.17228,0.379424 -0.17228,0.542252l0,0.054276c0.17228,1.138271 0.17228,2.439878 0.17228,4.445549l0,3.523873c0,2.439878 -0.043171,4.716929 0,6.451727c0,1.193055 0.560821,1.463927 1.0353,1.681031c0.258623,0.053768 0.430904,0.108044 0.64676,0.16232c0.388136,0.108552 0.776273,0.217103 1.379862,0.379424c0.086342,0.217103 0.086342,0.921675 -0.043172,1.518203c-0.043171,0.325147 -0.129513,0.487975 -0.17228,0.542251c-1.466204,-0.054276 -2.975579,-0.108552 -5.174885,-0.108552c-0.646759,0 -1.767998,0.054276 -2.716955,0.054276c-0.776274,0 -1.509375,0.054276 -1.940279,0.054276c-0.043172,-0.108552 -0.129514,-0.487976 -0.129514,-1.084503c0,-0.487976 0.086342,-0.867399 0.172685,-0.975951c0.215452,-0.054276 0.387733,-0.108044 0.603588,-0.108044c0.517246,-0.108552 0.948554,-0.217104 1.379862,-0.325656c0.733102,-0.270872 0.991725,-0.758847 1.034896,-1.951395c0.129513,-2.71075 0.258623,-10.463576 -0.043171,-12.415479c-0.517247,-3.144449 -1.940279,-4.716928 -4.225927,-4.716928c-1.33669,0 -3.01875,0.813124 -4.398611,2.11473c-0.215452,0.216597 -0.388137,0.758848 -0.388137,1.246823l0,3.198726c0,3.903297 0,8.783053 0.043171,10.897276c0.043172,0.650296 0.215452,1.409651 1.207581,1.680523c0.215452,0.054276 0.560417,0.162828 0.991725,0.217103l0.776273,0.162321c0.086342,0.325655 0.043171,1.626755 -0.129513,2.060454c-0.431308,0 -0.948554,-0.054276 -1.552546,-0.054276c-0.905383,-0.054276 -2.069793,-0.108551 -3.363312,-0.108551c-1.509375,0 -2.587442,0.054275 -3.450057,0.108551c-0.603589,-0.108551 -1.078068,-0.108551 -1.595314,-0.108551l0,0l0,0z"/>
  <path stroke="#331832" transform="rotate(-0.004119423218071461 173.51971435564178,161.2561950682917) " id="svg_7" fill="#331832" d="m179.282077,286.442793l-9.231716,-2.60404c0,0 1.127105,-38.857089 -15.760489,-41.645516c-11.258396,-10.7832 1.801258,-457.36312 42.330641,-1.487279c0,0 -13.959231,5.762985 -16.436752,15.617286c-2.702941,9.668175 -0.901683,30.119548 -0.901683,30.119548l0,0l0,0z"/>
  <path stroke="#331832" transform="rotate(-0.3527461588382721 207.9400024414079,132.98239135742185) " id="svg_9" fill="#331832" d="m182.07027,249.712291c0,0 82.652086,-41.301949 63.312746,-127.231415c-18.647878,-62.476892 -62.623441,-82.952664 -67.457198,-90.828589c-5.294731,-5.599931 -10.36113,-15.399812 -10.36113,-15.399812l3.455146,173.781252c0,0.175203 -7.138625,53.20262 11.050436,59.678565"/>
  <path stroke="#331832" id="svg_11" fill="#331832" d="m162.868835,247.808148c0,0 -68.711356,-41.054333 -64.632817,-113.343222c3.872513,-72.290561 52.39911,-107.810416 61.777078,-114.236689c6.117807,-5.711501 6.321923,-7.854149 6.730159,-13.565648c4.280749,8.03284 3.466187,120.126882 4.076632,133.335144c1.835152,50.870765 -3.262068,98.172677 -7.951052,107.810416l0,0l0,0z"/>
 </g>
</svg>