<svg width="256" height="257" xmlns="http://www.w3.org/2000/svg" preserveAspectRatio="xMidYMid">

 <g>
  <title>background</title>
  <rect fill="none" id="canvas_background" height="402" width="582" y="-1" x="-1"/>
 </g>
 <g>
  <title>Layer 1</title>
  <path stroke="null" id="svg_1" d="m0,-7.997892l256,0l0,273.774076l-256,0l0,-273.774076z" fill="#331832"/>
  <path id="svg_2" fill="#FFF" d="m190.464,71.728c-5.12,5.12 -11.264,12.288 -17.92,20.48c-7.168,8.192 -14.336,17.408 -21.504,27.136c-7.68,9.728 -14.848,19.968 -22.016,30.72c-7.168,10.24 -13.824,20.48 -19.456,30.208l83.968,0l0,31.232l-130.56,0l0,-22.016c4.608,-8.192 9.728,-16.896 16.384,-27.136c6.656,-9.728 13.312,-19.968 19.968,-30.208c6.656,-10.24 14.336,-19.968 21.504,-29.184c7.168,-9.216 13.824,-17.92 19.968,-25.088l-73.728,0l0,-31.232l123.392,0l0,25.088z"/>
 </g>
</svg>